<svg width="426" height="22" viewBox="0 0 426 22" fill="none" xmlns="http://www.w3.org/2000/svg">
<path opacity="0.5" d="M15.9508 17.1118H14.2511C14.0546 17.1118 13.896 17.0627 13.7751 16.9645C13.6542 16.8663 13.5636 16.7416 13.5032 16.5905L11.9847 12.6697H4.69827L3.1798 16.5905C3.12692 16.7265 3.03626 16.8474 2.90783 16.9532C2.7794 17.0589 2.62076 17.1118 2.43189 17.1118H0.732109L7.22528 0.873216H9.45767L15.9508 17.1118ZM5.31019 11.0833H11.3728L8.82308 4.47676C8.65688 4.06881 8.49445 3.55887 8.33581 2.94695C8.25271 3.25669 8.16961 3.54376 8.08651 3.80818C8.01096 4.06503 7.93541 4.29167 7.85987 4.48809L5.31019 11.0833ZM22.0598 20.9987V5.63261H23.261C23.548 5.63261 23.7294 5.77237 23.8049 6.05189L23.9749 7.41172C24.4659 6.8149 25.025 6.33519 25.652 5.97257C26.2866 5.60995 27.0156 5.42864 27.8391 5.42864C28.4963 5.42864 29.0931 5.55706 29.6295 5.81392C30.1659 6.06322 30.6229 6.43717 31.0007 6.93578C31.3784 7.42683 31.6692 8.03875 31.8732 8.77154C32.0772 9.50434 32.1792 10.3467 32.1792 11.2986C32.1792 12.1447 32.0659 12.9341 31.8392 13.6669C31.6126 14.3922 31.2877 15.023 30.8647 15.5593C30.4416 16.0882 29.9203 16.5074 29.3009 16.8172C28.6889 17.1194 27.9977 17.2705 27.2271 17.2705C26.517 17.2705 25.9089 17.1534 25.4027 16.9192C24.9041 16.685 24.4622 16.3526 24.0769 15.922V20.9987H22.0598ZM27.1705 7.06043C26.5132 7.06043 25.9353 7.21152 25.4367 7.5137C24.9456 7.81589 24.4924 8.24272 24.0769 8.79421V14.3468C24.447 14.8454 24.8512 15.1967 25.2894 15.4007C25.7351 15.6047 26.2299 15.7067 26.7739 15.7067C27.8391 15.7067 28.6587 15.3252 29.2329 14.5621C29.807 13.7991 30.0941 12.7113 30.0941 11.2986C30.0941 10.5507 30.0261 9.90851 29.8901 9.37213C29.7617 8.83576 29.5728 8.39759 29.3235 8.05764C29.0742 7.71012 28.7683 7.45704 28.4056 7.2984C28.043 7.13975 27.6313 7.06043 27.1705 7.06043ZM36.8084 0.41994V17.1118H34.7913V0.41994H36.8084ZM48.7944 17.1118H47.8992C47.7027 17.1118 47.5441 17.0816 47.4232 17.0212C47.3023 16.9607 47.223 16.8323 47.1852 16.6359L46.9586 15.5707C46.6564 15.8426 46.3618 16.0882 46.0747 16.3073C45.7876 16.5188 45.4855 16.7001 45.1682 16.8512C44.8509 16.9947 44.5109 17.1043 44.1483 17.1798C43.7932 17.2554 43.3966 17.2931 42.9585 17.2931C42.5127 17.2931 42.0935 17.2327 41.7006 17.1118C41.3153 16.9834 40.9791 16.7945 40.6921 16.5452C40.405 16.2959 40.1746 15.9824 40.0008 15.6047C39.8346 15.2194 39.7515 14.7661 39.7515 14.2448C39.7515 13.7916 39.8762 13.3572 40.1255 12.9417C40.3748 12.5186 40.7752 12.1447 41.3267 11.8198C41.8857 11.495 42.6147 11.2306 43.5137 11.0266C44.4127 10.8151 45.5119 10.6942 46.8113 10.664V9.76875C46.8113 8.87731 46.6187 8.20495 46.2334 7.75167C45.8556 7.29084 45.2928 7.06043 44.5449 7.06043C44.0539 7.06043 43.6384 7.12464 43.2984 7.25307C42.966 7.37394 42.6752 7.5137 42.4259 7.67235C42.1841 7.82344 41.9726 7.9632 41.7913 8.09163C41.6175 8.2125 41.4438 8.27294 41.27 8.27294C41.134 8.27294 41.0131 8.23895 40.9074 8.17095C40.8092 8.09541 40.7298 8.00475 40.6694 7.89899L40.3068 7.25307C40.9414 6.64115 41.6251 6.1841 42.3579 5.88191C43.0907 5.57973 43.9028 5.42864 44.7942 5.42864C45.4364 5.42864 46.0067 5.5344 46.5053 5.74593C47.0039 5.95746 47.4232 6.25209 47.7632 6.62982C48.1031 7.00755 48.36 7.4646 48.5337 8.00098C48.7075 8.53735 48.7944 9.12661 48.7944 9.76875V17.1118ZM43.559 15.8766C43.9141 15.8766 44.239 15.8426 44.5336 15.7747C44.8282 15.6991 45.104 15.5971 45.3608 15.4687C45.6252 15.3327 45.8745 15.1703 46.1087 14.9814C46.3505 14.7926 46.5847 14.5772 46.8113 14.3355V11.9445C45.8821 11.9747 45.0926 12.0502 44.4429 12.1711C43.7932 12.2844 43.2644 12.4355 42.8565 12.6244C42.4485 12.8133 42.1501 13.0361 41.9612 13.293C41.7799 13.5498 41.6893 13.8369 41.6893 14.1542C41.6893 14.4564 41.7384 14.717 41.8366 14.9361C41.9348 15.1552 42.067 15.3365 42.2332 15.48C42.3994 15.616 42.5958 15.718 42.8225 15.786C43.0491 15.8464 43.2946 15.8766 43.559 15.8766ZM55.3292 17.2931C54.4226 17.2931 53.7238 17.04 53.2328 16.5339C52.7493 16.0277 52.5075 15.2987 52.5075 14.3468V7.32106H51.125C51.0042 7.32106 50.9022 7.28707 50.8191 7.21908C50.736 7.14353 50.6944 7.03021 50.6944 6.87912V6.07455L52.5755 5.83658L53.0401 2.2897C53.0552 2.17638 53.1043 2.08573 53.1874 2.01774C53.2705 1.94219 53.3763 1.90442 53.5047 1.90442H54.5246V5.85925H57.8108V7.32106H54.5246V14.2109C54.5246 14.6943 54.6417 15.0532 54.8759 15.2874C55.1101 15.5216 55.4123 15.6387 55.7824 15.6387C55.994 15.6387 56.1753 15.6122 56.3264 15.5593C56.485 15.4989 56.621 15.4347 56.7343 15.3667C56.8476 15.2987 56.9421 15.2383 57.0176 15.1854C57.1007 15.125 57.1725 15.0947 57.2329 15.0947C57.3387 15.0947 57.4331 15.159 57.5162 15.2874L58.1055 16.2506C57.758 16.5754 57.3387 16.8323 56.8476 17.0212C56.3566 17.2025 55.8504 17.2931 55.3292 17.2931ZM68.7359 17.1118H67.8406C67.6442 17.1118 67.4856 17.0816 67.3647 17.0212C67.2438 16.9607 67.1645 16.8323 67.1267 16.6359L66.9001 15.5707C66.5979 15.8426 66.3033 16.0882 66.0162 16.3073C65.7291 16.5188 65.4269 16.7001 65.1096 16.8512C64.7924 16.9947 64.4524 17.1043 64.0898 17.1798C63.7347 17.2554 63.3381 17.2931 62.8999 17.2931C62.4542 17.2931 62.0349 17.2327 61.6421 17.1118C61.2568 16.9834 60.9206 16.7945 60.6335 16.5452C60.3465 16.2959 60.1161 15.9824 59.9423 15.6047C59.7761 15.2194 59.693 14.7661 59.693 14.2448C59.693 13.7916 59.8177 13.3572 60.067 12.9417C60.3163 12.5186 60.7166 12.1447 61.2681 11.8198C61.8272 11.495 62.5562 11.2306 63.4552 11.0266C64.3542 10.8151 65.4534 10.6942 66.7528 10.664V9.76875C66.7528 8.87731 66.5601 8.20495 66.1748 7.75167C65.7971 7.29084 65.2343 7.06043 64.4864 7.06043C63.9953 7.06043 63.5798 7.12464 63.2399 7.25307C62.9075 7.37394 62.6166 7.5137 62.3673 7.67235C62.1256 7.82344 61.9141 7.9632 61.7327 8.09163C61.559 8.2125 61.3852 8.27294 61.2115 8.27294C61.0755 8.27294 60.9546 8.23895 60.8489 8.17095C60.7506 8.09541 60.6713 8.00475 60.6109 7.89899L60.2483 7.25307C60.8828 6.64115 61.5665 6.1841 62.2993 5.88191C63.0321 5.57973 63.8443 5.42864 64.7357 5.42864C65.3778 5.42864 65.9482 5.5344 66.4468 5.74593C66.9454 5.95746 67.3647 6.25209 67.7046 6.62982C68.0446 7.00755 68.3015 7.4646 68.4752 8.00098C68.649 8.53735 68.7359 9.12661 68.7359 9.76875V17.1118ZM63.5005 15.8766C63.8556 15.8766 64.1804 15.8426 64.4751 15.7747C64.7697 15.6991 65.0454 15.5971 65.3023 15.4687C65.5667 15.3327 65.816 15.1703 66.0502 14.9814C66.2919 14.7926 66.5261 14.5772 66.7528 14.3355V11.9445C65.8236 11.9747 65.0341 12.0502 64.3844 12.1711C63.7347 12.2844 63.2059 12.4355 62.7979 12.6244C62.39 12.8133 62.0916 13.0361 61.9027 13.293C61.7214 13.5498 61.6308 13.8369 61.6308 14.1542C61.6308 14.4564 61.6799 14.717 61.7781 14.9361C61.8763 15.1552 62.0085 15.3365 62.1747 15.48C62.3409 15.616 62.5373 15.718 62.7639 15.786C62.9906 15.8464 63.2361 15.8766 63.5005 15.8766ZM72.245 17.1118V7.35506L70.9758 7.20774C70.8172 7.16997 70.685 7.11331 70.5792 7.03776C70.481 6.95466 70.4319 6.83757 70.4319 6.68648V5.85925H72.245V4.74872C72.245 4.09147 72.3357 3.50977 72.517 3.00361C72.7058 2.4899 72.9703 2.05929 73.3102 1.71178C73.6577 1.35671 74.0732 1.08852 74.5567 0.907211C75.0402 0.725901 75.5841 0.635245 76.1885 0.635245C76.7022 0.635245 77.1782 0.710792 77.6163 0.861884L77.571 1.87042C77.5634 2.02151 77.4992 2.11217 77.3784 2.14239C77.2575 2.17261 77.0875 2.18772 76.8684 2.18772H76.5171C76.1696 2.18772 75.8523 2.23304 75.5653 2.3237C75.2857 2.41435 75.044 2.56167 74.84 2.76564C74.636 2.96962 74.4774 3.2378 74.3641 3.57021C74.2583 3.90261 74.2054 4.31433 74.2054 4.80538V5.85925H77.5257V7.32106H74.2734V17.1118H72.245ZM84.0736 5.4513C84.9121 5.4513 85.6676 5.59106 86.3399 5.87058C87.0199 6.1501 87.594 6.54672 88.0624 7.06043C88.5383 7.57414 88.901 8.19739 89.1503 8.93019C89.4071 9.65543 89.5355 10.4676 89.5355 11.3665C89.5355 12.2731 89.4071 13.089 89.1503 13.8142C88.901 14.5395 88.5383 15.159 88.0624 15.6727C87.594 16.1864 87.0199 16.583 86.3399 16.8625C85.6676 17.1345 84.9121 17.2705 84.0736 17.2705C83.235 17.2705 82.4758 17.1345 81.7959 16.8625C81.1235 16.583 80.5493 16.1864 80.0734 15.6727C79.5975 15.159 79.2311 14.5395 78.9742 13.8142C78.7174 13.089 78.5889 12.2731 78.5889 11.3665C78.5889 10.4676 78.7174 9.65543 78.9742 8.93019C79.2311 8.19739 79.5975 7.57414 80.0734 7.06043C80.5493 6.54672 81.1235 6.1501 81.7959 5.87058C82.4758 5.59106 83.235 5.4513 84.0736 5.4513ZM84.0736 15.6953C85.2068 15.6953 86.0529 15.3176 86.6119 14.5621C87.1709 13.7991 87.4505 12.7377 87.4505 11.3779C87.4505 10.0105 87.1709 8.9453 86.6119 8.18229C86.0529 7.41927 85.2068 7.03776 84.0736 7.03776C83.4994 7.03776 83.0008 7.13597 82.5778 7.33239C82.1547 7.52881 81.7996 7.81211 81.5126 8.18229C81.233 8.55246 81.0215 9.00951 80.878 9.55344C80.742 10.0898 80.674 10.698 80.674 11.3779C80.674 12.0578 80.742 12.6659 80.878 13.2023C81.0215 13.7387 81.233 14.192 81.5126 14.5621C81.7996 14.9248 82.1547 15.2043 82.5778 15.4007C83.0008 15.5971 83.4994 15.6953 84.0736 15.6953ZM92.0209 17.1118V5.63261H93.1768C93.3959 5.63261 93.547 5.67416 93.6301 5.75726C93.7132 5.84036 93.7698 5.9839 93.8 6.18787L93.936 7.97831C94.3289 7.17752 94.8124 6.55427 95.3865 6.10855C95.9682 5.65527 96.6481 5.42864 97.4263 5.42864C97.7435 5.42864 98.0306 5.46641 98.2875 5.54196C98.5443 5.60995 98.7823 5.70816 99.0014 5.83658L98.7408 7.34373C98.6879 7.53259 98.5708 7.62702 98.3895 7.62702C98.2837 7.62702 98.1213 7.59303 97.9022 7.52504C97.6831 7.44949 97.3771 7.41172 96.9843 7.41172C96.2817 7.41172 95.6925 7.61569 95.2165 8.02364C94.7482 8.43159 94.3553 9.02462 94.038 9.80275V17.1118H92.0209ZM101.162 17.1118V5.63261H102.363C102.65 5.63261 102.831 5.77237 102.907 6.05189L103.054 7.23041C103.477 6.70914 103.949 6.28231 104.471 5.9499C104.999 5.6175 105.611 5.4513 106.306 5.4513C107.085 5.4513 107.712 5.66661 108.187 6.09722C108.671 6.52783 109.018 7.10953 109.23 7.84233C109.389 7.42683 109.596 7.06798 109.853 6.7658C110.118 6.46362 110.412 6.21431 110.737 6.01789C111.062 5.82148 111.406 5.67794 111.768 5.58728C112.139 5.49663 112.512 5.4513 112.89 5.4513C113.495 5.4513 114.031 5.54951 114.499 5.74593C114.975 5.93479 115.376 6.21431 115.701 6.58449C116.033 6.95466 116.286 7.41172 116.46 7.95565C116.634 8.49202 116.72 9.10772 116.72 9.80275V17.1118H114.703V9.80275C114.703 8.90375 114.507 8.22384 114.114 7.76301C113.721 7.29462 113.151 7.06043 112.403 7.06043C112.071 7.06043 111.753 7.12087 111.451 7.24174C111.156 7.35506 110.896 7.52504 110.669 7.75167C110.443 7.97831 110.261 8.26539 110.125 8.6129C109.997 8.95285 109.933 9.34947 109.933 9.80275V17.1118H107.916V9.80275C107.916 8.88109 107.73 8.19362 107.36 7.74034C106.99 7.28707 106.45 7.06043 105.74 7.06043C105.241 7.06043 104.777 7.19641 104.346 7.46838C103.923 7.73279 103.534 8.09541 103.179 8.55624V17.1118H101.162ZM128.206 17.1118H127.311C127.115 17.1118 126.956 17.0816 126.835 17.0212C126.714 16.9607 126.635 16.8323 126.597 16.6359L126.37 15.5707C126.068 15.8426 125.774 16.0882 125.486 16.3073C125.199 16.5188 124.897 16.7001 124.58 16.8512C124.263 16.9947 123.923 17.1043 123.56 17.1798C123.205 17.2554 122.808 17.2931 122.37 17.2931C121.924 17.2931 121.505 17.2327 121.112 17.1118C120.727 16.9834 120.391 16.7945 120.104 16.5452C119.817 16.2959 119.586 15.9824 119.413 15.6047C119.246 15.2194 119.163 14.7661 119.163 14.2448C119.163 13.7916 119.288 13.3572 119.537 12.9417C119.787 12.5186 120.187 12.1447 120.738 11.8198C121.297 11.495 122.026 11.2306 122.925 11.0266C123.824 10.8151 124.924 10.6942 126.223 10.664V9.76875C126.223 8.87731 126.03 8.20495 125.645 7.75167C125.267 7.29084 124.705 7.06043 123.957 7.06043C123.466 7.06043 123.05 7.12464 122.71 7.25307C122.378 7.37394 122.087 7.5137 121.838 7.67235C121.596 7.82344 121.384 7.9632 121.203 8.09163C121.029 8.2125 120.856 8.27294 120.682 8.27294C120.546 8.27294 120.425 8.23895 120.319 8.17095C120.221 8.09541 120.142 8.00475 120.081 7.89899L119.719 7.25307C120.353 6.64115 121.037 6.1841 121.77 5.88191C122.502 5.57973 123.315 5.42864 124.206 5.42864C124.848 5.42864 125.418 5.5344 125.917 5.74593C126.416 5.95746 126.835 6.25209 127.175 6.62982C127.515 7.00755 127.772 7.4646 127.946 8.00098C128.119 8.53735 128.206 9.12661 128.206 9.76875V17.1118ZM122.971 15.8766C123.326 15.8766 123.651 15.8426 123.945 15.7747C124.24 15.6991 124.516 15.5971 124.773 15.4687C125.037 15.3327 125.286 15.1703 125.52 14.9814C125.762 14.7926 125.996 14.5772 126.223 14.3355V11.9445C125.294 11.9747 124.504 12.0502 123.855 12.1711C123.205 12.2844 122.676 12.4355 122.268 12.6244C121.86 12.8133 121.562 13.0361 121.373 13.293C121.192 13.5498 121.101 13.8369 121.101 14.1542C121.101 14.4564 121.15 14.717 121.248 14.9361C121.347 15.1552 121.479 15.3365 121.645 15.48C121.811 15.616 122.008 15.718 122.234 15.786C122.461 15.8464 122.706 15.8766 122.971 15.8766ZM143.724 17.1118C143.437 17.1118 143.256 16.9721 143.18 16.6925L142.999 15.2987C142.508 15.8955 141.945 16.3752 141.31 16.7379C140.683 17.0929 139.962 17.2705 139.146 17.2705C138.489 17.2705 137.892 17.1458 137.355 16.8965C136.819 16.6397 136.362 16.2657 135.984 15.7747C135.607 15.2836 135.316 14.6717 135.112 13.9389C134.908 13.2061 134.806 12.3638 134.806 11.4119C134.806 10.5658 134.919 9.78008 135.146 9.05484C135.372 8.32205 135.697 7.68746 136.12 7.15108C136.551 6.61471 137.072 6.19543 137.684 5.89324C138.296 5.58351 138.991 5.42864 139.769 5.42864C140.472 5.42864 141.072 5.54951 141.571 5.79126C142.069 6.02545 142.515 6.35785 142.908 6.78846V0.41994H144.925V17.1118H143.724ZM139.814 15.6387C140.472 15.6387 141.046 15.4876 141.537 15.1854C142.035 14.8832 142.493 14.4564 142.908 13.9049V8.35226C142.538 7.85366 142.13 7.50615 141.684 7.30973C141.246 7.10576 140.759 7.00377 140.222 7.00377C139.15 7.00377 138.326 7.38528 137.752 8.14829C137.178 8.9113 136.891 9.99917 136.891 11.4119C136.891 12.1598 136.955 12.8019 137.083 13.3383C137.212 13.8671 137.401 14.3053 137.65 14.6528C137.899 14.9928 138.205 15.2421 138.568 15.4007C138.931 15.5593 139.346 15.6387 139.814 15.6387ZM152.848 5.4513C153.536 5.4513 154.17 5.5684 154.752 5.80259C155.334 6.02923 155.836 6.36163 156.259 6.7998C156.682 7.23041 157.011 7.76678 157.245 8.40892C157.487 9.04351 157.608 9.76875 157.608 10.5846C157.608 10.9019 157.574 11.1135 157.506 11.2192C157.438 11.325 157.309 11.3779 157.12 11.3779H149.483C149.498 12.1031 149.596 12.7339 149.777 13.2703C149.959 13.8067 150.208 14.2562 150.525 14.6188C150.842 14.9739 151.22 15.2421 151.658 15.4234C152.097 15.5971 152.588 15.684 153.132 15.684C153.638 15.684 154.072 15.6273 154.435 15.514C154.805 15.3931 155.122 15.2647 155.387 15.1287C155.651 14.9928 155.87 14.8681 156.044 14.7548C156.225 14.6339 156.38 14.5735 156.508 14.5735C156.675 14.5735 156.803 14.6377 156.894 14.7661L157.46 15.5027C157.211 15.8049 156.913 16.0693 156.565 16.2959C156.218 16.515 155.844 16.6963 155.443 16.8399C155.05 16.9834 154.642 17.0892 154.219 17.1571C153.796 17.2327 153.377 17.2705 152.962 17.2705C152.168 17.2705 151.436 17.1383 150.763 16.8738C150.098 16.6019 149.52 16.209 149.029 15.6953C148.546 15.1741 148.168 14.5319 147.896 13.7689C147.624 13.0059 147.488 12.1296 147.488 11.1399C147.488 10.3391 147.609 9.59122 147.851 8.8962C148.1 8.20117 148.455 7.60058 148.916 7.09442C149.377 6.58071 149.94 6.18032 150.605 5.89324C151.269 5.59861 152.017 5.4513 152.848 5.4513ZM152.894 6.93578C151.919 6.93578 151.152 7.21907 150.593 7.78567C150.034 8.34471 149.687 9.12283 149.551 10.12H155.795C155.795 9.65165 155.73 9.22482 155.602 8.83954C155.473 8.4467 155.285 8.11052 155.035 7.831C154.786 7.54392 154.48 7.32484 154.117 7.17375C153.762 7.0151 153.354 6.93578 152.894 6.93578ZM173.207 3.41156C173.139 3.52488 173.067 3.61176 172.991 3.67219C172.916 3.72508 172.817 3.75152 172.697 3.75152C172.568 3.75152 172.417 3.6873 172.243 3.55887C172.077 3.43045 171.862 3.29069 171.597 3.13959C171.341 2.98095 171.027 2.83741 170.657 2.70898C170.294 2.58055 169.852 2.51634 169.331 2.51634C168.84 2.51634 168.406 2.58433 168.028 2.72031C167.65 2.84874 167.333 3.02628 167.076 3.25291C166.827 3.47955 166.638 3.74774 166.509 4.05748C166.381 4.35966 166.317 4.68829 166.317 5.04335C166.317 5.49663 166.426 5.87436 166.645 6.17654C166.872 6.47117 167.167 6.72425 167.529 6.93578C167.899 7.14731 168.315 7.33239 168.776 7.49104C169.244 7.64213 169.72 7.80078 170.204 7.96698C170.695 8.13318 171.171 8.32205 171.631 8.53357C172.1 8.73755 172.515 8.99818 172.878 9.31548C173.248 9.63277 173.543 10.0218 173.762 10.4827C173.988 10.9435 174.102 11.5101 174.102 12.1824C174.102 12.8926 173.981 13.5612 173.739 14.1882C173.497 14.8077 173.142 15.3478 172.674 15.8086C172.213 16.2695 171.643 16.6321 170.963 16.8965C170.29 17.1609 169.524 17.2931 168.662 17.2931C167.612 17.2931 166.653 17.1043 165.784 16.7265C164.923 16.3412 164.186 15.8238 163.574 15.1741L164.209 14.1315C164.269 14.0484 164.341 13.9804 164.424 13.9276C164.515 13.8671 164.613 13.8369 164.719 13.8369C164.878 13.8369 165.059 13.9238 165.263 14.0975C165.467 14.2637 165.72 14.4488 166.022 14.6528C166.332 14.8568 166.702 15.0456 167.133 15.2194C167.571 15.3856 168.103 15.4687 168.73 15.4687C169.252 15.4687 169.716 15.3969 170.124 15.2534C170.532 15.1098 170.876 14.9097 171.155 14.6528C171.443 14.3884 171.662 14.0749 171.813 13.7122C171.964 13.3496 172.039 12.9455 172.039 12.4997C172.039 12.0087 171.926 11.6083 171.699 11.2986C171.48 10.9813 171.189 10.7169 170.827 10.5053C170.464 10.2938 170.049 10.1163 169.58 9.97272C169.119 9.82163 168.644 9.67054 168.152 9.51945C167.669 9.3608 167.193 9.17949 166.725 8.97552C166.264 8.77154 165.852 8.50713 165.489 8.18229C165.127 7.85744 164.832 7.45327 164.606 6.96977C164.387 6.47872 164.277 5.87436 164.277 5.15667C164.277 4.58252 164.387 4.02726 164.606 3.49088C164.832 2.95451 165.157 2.47857 165.58 2.06306C166.003 1.64756 166.524 1.31516 167.144 1.06586C167.771 0.816556 168.489 0.691905 169.297 0.691905C170.204 0.691905 171.031 0.835443 171.779 1.12252C172.527 1.40959 173.18 1.82509 173.739 2.36902L173.207 3.41156ZM180.068 17.2931C179.162 17.2931 178.463 17.04 177.972 16.5339C177.489 16.0277 177.247 15.2987 177.247 14.3468V7.32106H175.864C175.743 7.32106 175.642 7.28707 175.558 7.21908C175.475 7.14353 175.434 7.03021 175.434 6.87912V6.07455L177.315 5.83658L177.779 2.2897C177.795 2.17638 177.844 2.08573 177.927 2.01774C178.01 1.94219 178.116 1.90442 178.244 1.90442H179.264V5.85925H182.55V7.32106H179.264V14.2109C179.264 14.6943 179.381 15.0532 179.615 15.2874C179.849 15.5216 180.152 15.6387 180.522 15.6387C180.733 15.6387 180.915 15.6122 181.066 15.5593C181.224 15.4989 181.36 15.4347 181.474 15.3667C181.587 15.2987 181.681 15.2383 181.757 15.1854C181.84 15.125 181.912 15.0947 181.972 15.0947C182.078 15.0947 182.172 15.159 182.256 15.2874L182.845 16.2506C182.497 16.5754 182.078 16.8323 181.587 17.0212C181.096 17.2025 180.59 17.2931 180.068 17.2931ZM185.044 17.1118V5.63261H186.2C186.419 5.63261 186.57 5.67416 186.653 5.75726C186.736 5.84036 186.793 5.9839 186.823 6.18787L186.959 7.97831C187.352 7.17752 187.836 6.55427 188.41 6.10855C188.992 5.65527 189.671 5.42864 190.45 5.42864C190.767 5.42864 191.054 5.46641 191.311 5.54196C191.568 5.60995 191.806 5.70816 192.025 5.83658L191.764 7.34373C191.711 7.53259 191.594 7.62702 191.413 7.62702C191.307 7.62702 191.145 7.59303 190.926 7.52504C190.706 7.44949 190.4 7.41172 190.008 7.41172C189.305 7.41172 188.716 7.61569 188.24 8.02364C187.771 8.43159 187.379 9.02462 187.061 9.80275V17.1118H185.044ZM198.729 5.4513C199.417 5.4513 200.051 5.5684 200.633 5.80259C201.215 6.02923 201.717 6.36163 202.14 6.7998C202.563 7.23041 202.892 7.76678 203.126 8.40892C203.368 9.04351 203.489 9.76875 203.489 10.5846C203.489 10.9019 203.455 11.1135 203.387 11.2192C203.319 11.325 203.19 11.3779 203.001 11.3779H195.364C195.379 12.1031 195.477 12.7339 195.658 13.2703C195.839 13.8067 196.089 14.2562 196.406 14.6188C196.723 14.9739 197.101 15.2421 197.539 15.4234C197.977 15.5971 198.468 15.684 199.012 15.684C199.519 15.684 199.953 15.6273 200.316 15.514C200.686 15.3931 201.003 15.2647 201.267 15.1287C201.532 14.9928 201.751 14.8681 201.925 14.7548C202.106 14.6339 202.261 14.5735 202.389 14.5735C202.556 14.5735 202.684 14.6377 202.775 14.7661L203.341 15.5027C203.092 15.8049 202.793 16.0693 202.446 16.2959C202.098 16.515 201.725 16.6963 201.324 16.8399C200.931 16.9834 200.523 17.0892 200.1 17.1571C199.677 17.2327 199.258 17.2705 198.842 17.2705C198.049 17.2705 197.316 17.1383 196.644 16.8738C195.979 16.6019 195.401 16.209 194.91 15.6953C194.427 15.1741 194.049 14.5319 193.777 13.7689C193.505 13.0059 193.369 12.1296 193.369 11.1399C193.369 10.3391 193.49 9.59122 193.732 8.8962C193.981 8.20117 194.336 7.60058 194.797 7.09442C195.258 6.58071 195.821 6.18032 196.485 5.89324C197.15 5.59861 197.898 5.4513 198.729 5.4513ZM198.774 6.93578C197.8 6.93578 197.033 7.21907 196.474 7.78567C195.915 8.34471 195.568 9.12283 195.432 10.12H201.675C201.675 9.65165 201.611 9.22482 201.483 8.83954C201.354 8.4467 201.165 8.11052 200.916 7.831C200.667 7.54392 200.361 7.32484 199.998 7.17375C199.643 7.0151 199.235 6.93578 198.774 6.93578ZM214.501 17.1118H213.606C213.41 17.1118 213.251 17.0816 213.13 17.0212C213.009 16.9607 212.93 16.8323 212.892 16.6359L212.665 15.5707C212.363 15.8426 212.069 16.0882 211.782 16.3073C211.494 16.5188 211.192 16.7001 210.875 16.8512C210.558 16.9947 210.218 17.1043 209.855 17.1798C209.5 17.2554 209.103 17.2931 208.665 17.2931C208.22 17.2931 207.8 17.2327 207.407 17.1118C207.022 16.9834 206.686 16.7945 206.399 16.5452C206.112 16.2959 205.881 15.9824 205.708 15.6047C205.541 15.2194 205.458 14.7661 205.458 14.2448C205.458 13.7916 205.583 13.3572 205.832 12.9417C206.082 12.5186 206.482 12.1447 207.033 11.8198C207.592 11.495 208.321 11.2306 209.22 11.0266C210.119 10.8151 211.219 10.6942 212.518 10.664V9.76875C212.518 8.87731 212.325 8.20495 211.94 7.75167C211.562 7.29084 211 7.06043 210.252 7.06043C209.761 7.06043 209.345 7.12464 209.005 7.25307C208.673 7.37394 208.382 7.5137 208.133 7.67235C207.891 7.82344 207.679 7.9632 207.498 8.09163C207.324 8.2125 207.151 8.27294 206.977 8.27294C206.841 8.27294 206.72 8.23895 206.614 8.17095C206.516 8.09541 206.437 8.00475 206.376 7.89899L206.014 7.25307C206.648 6.64115 207.332 6.1841 208.065 5.88191C208.797 5.57973 209.61 5.42864 210.501 5.42864C211.143 5.42864 211.714 5.5344 212.212 5.74593C212.711 5.95746 213.13 6.25209 213.47 6.62982C213.81 7.00755 214.067 7.4646 214.241 8.00098C214.414 8.53735 214.501 9.12661 214.501 9.76875V17.1118ZM209.266 15.8766C209.621 15.8766 209.946 15.8426 210.24 15.7747C210.535 15.6991 210.811 15.5971 211.068 15.4687C211.332 15.3327 211.581 15.1703 211.815 14.9814C212.057 14.7926 212.291 14.5772 212.518 14.3355V11.9445C211.589 11.9747 210.799 12.0502 210.15 12.1711C209.5 12.2844 208.971 12.4355 208.563 12.6244C208.155 12.8133 207.857 13.0361 207.668 13.293C207.487 13.5498 207.396 13.8369 207.396 14.1542C207.396 14.4564 207.445 14.717 207.543 14.9361C207.642 15.1552 207.774 15.3365 207.94 15.48C208.106 15.616 208.303 15.718 208.529 15.786C208.756 15.8464 209.001 15.8766 209.266 15.8766ZM217.557 17.1118V5.63261H218.758C219.045 5.63261 219.227 5.77237 219.302 6.05189L219.449 7.23041C219.873 6.70914 220.345 6.28231 220.866 5.9499C221.395 5.6175 222.007 5.4513 222.702 5.4513C223.48 5.4513 224.107 5.66661 224.583 6.09722C225.066 6.52783 225.414 7.10953 225.625 7.84233C225.784 7.42683 225.992 7.06798 226.249 6.7658C226.513 6.46362 226.808 6.21431 227.132 6.01789C227.457 5.82148 227.801 5.67794 228.164 5.58728C228.534 5.49663 228.908 5.4513 229.286 5.4513C229.89 5.4513 230.426 5.54951 230.895 5.74593C231.371 5.93479 231.771 6.21431 232.096 6.58449C232.428 6.95466 232.681 7.41172 232.855 7.95565C233.029 8.49202 233.116 9.10772 233.116 9.80275V17.1118H231.099V9.80275C231.099 8.90375 230.902 8.22384 230.509 7.76301C230.117 7.29462 229.546 7.06043 228.798 7.06043C228.466 7.06043 228.149 7.12087 227.846 7.24174C227.552 7.35506 227.291 7.52504 227.065 7.75167C226.838 7.97831 226.657 8.26539 226.521 8.6129C226.392 8.95285 226.328 9.34947 226.328 9.80275V17.1118H224.311V9.80275C224.311 8.88109 224.126 8.19362 223.756 7.74034C223.385 7.28707 222.845 7.06043 222.135 7.06043C221.637 7.06043 221.172 7.19641 220.741 7.46838C220.318 7.73279 219.929 8.09541 219.574 8.55624V17.1118H217.557ZM238.414 5.63261V17.1118H236.397V5.63261H238.414ZM238.868 2.02907C238.868 2.22549 238.826 2.41058 238.743 2.58433C238.667 2.75053 238.562 2.90162 238.426 3.03761C238.297 3.16604 238.146 3.26802 237.972 3.34357C237.799 3.41911 237.613 3.45689 237.417 3.45689C237.221 3.45689 237.036 3.41911 236.862 3.34357C236.696 3.26802 236.545 3.16604 236.409 3.03761C236.28 2.90162 236.178 2.75053 236.103 2.58433C236.027 2.41058 235.989 2.22549 235.989 2.02907C235.989 1.83265 236.027 1.64756 236.103 1.47381C236.178 1.2925 236.28 1.13763 236.409 1.0092C236.545 0.873216 236.696 0.767452 236.862 0.691905C237.036 0.616359 237.221 0.578586 237.417 0.578586C237.613 0.578586 237.799 0.616359 237.972 0.691905C238.146 0.767452 238.297 0.873216 238.426 1.0092C238.562 1.13763 238.667 1.2925 238.743 1.47381C238.826 1.64756 238.868 1.83265 238.868 2.02907ZM241.969 17.1118V5.63261H243.17C243.458 5.63261 243.639 5.77237 243.714 6.05189L243.873 7.2984C244.372 6.74691 244.927 6.30119 245.539 5.96124C246.158 5.62128 246.872 5.4513 247.681 5.4513C248.308 5.4513 248.859 5.55706 249.335 5.76859C249.819 5.97257 250.219 6.2672 250.536 6.65248C250.861 7.03021 251.107 7.48726 251.273 8.02364C251.439 8.56002 251.522 9.15305 251.522 9.80275V17.1118H249.505V9.80275C249.505 8.93397 249.305 8.26161 248.904 7.78567C248.512 7.30218 247.907 7.06043 247.091 7.06043C246.495 7.06043 245.935 7.20397 245.414 7.49104C244.9 7.77811 244.425 8.16718 243.986 8.65823V17.1118H241.969ZM258.427 5.43997C258.926 5.43997 259.39 5.49663 259.821 5.60995C260.259 5.71571 260.656 5.87436 261.011 6.08589H264.127V6.83379C264.127 7.08309 263.968 7.24174 263.651 7.30973L262.348 7.49104C262.605 7.98209 262.733 8.5298 262.733 9.13416C262.733 9.6932 262.624 10.2031 262.404 10.664C262.193 11.1172 261.894 11.5063 261.509 11.8312C261.131 12.156 260.678 12.4053 260.149 12.5791C259.628 12.7528 259.054 12.8397 258.427 12.8397C257.891 12.8397 257.384 12.7755 256.908 12.6471C256.667 12.7981 256.482 12.9606 256.353 13.1343C256.232 13.3081 256.172 13.4781 256.172 13.6443C256.172 13.9162 256.281 14.124 256.501 14.2675C256.72 14.4035 257.01 14.5017 257.373 14.5621C257.736 14.6226 258.147 14.6604 258.608 14.6755C259.069 14.6906 259.537 14.717 260.013 14.7548C260.497 14.785 260.969 14.8417 261.43 14.9248C261.891 15.0079 262.302 15.1438 262.665 15.3327C263.028 15.5216 263.319 15.7822 263.538 16.1146C263.757 16.447 263.866 16.8776 263.866 17.4064C263.866 17.8975 263.742 18.3734 263.492 18.8343C263.251 19.2951 262.899 19.703 262.438 20.0581C261.978 20.4207 261.415 20.7078 260.75 20.9193C260.085 21.1384 259.333 21.248 258.495 21.248C257.656 21.248 256.92 21.1649 256.285 20.9987C255.658 20.8325 255.137 20.6096 254.721 20.3301C254.306 20.0506 253.992 19.7257 253.781 19.3555C253.577 18.9929 253.475 18.6114 253.475 18.211C253.475 17.6444 253.652 17.1647 254.007 16.7719C254.37 16.3715 254.865 16.0542 255.492 15.82C255.167 15.6689 254.906 15.4687 254.71 15.2194C254.521 14.9625 254.427 14.6226 254.427 14.1995C254.427 14.0333 254.457 13.8633 254.517 13.6896C254.578 13.5083 254.669 13.3307 254.789 13.157C254.918 12.9832 255.073 12.817 255.254 12.6584C255.435 12.4997 255.647 12.36 255.889 12.2391C255.322 11.9218 254.876 11.5025 254.551 10.9813C254.234 10.4524 254.075 9.83674 254.075 9.13416C254.075 8.57512 254.181 8.06897 254.393 7.61569C254.612 7.15486 254.914 6.7658 255.299 6.44851C255.685 6.12366 256.142 5.87436 256.67 5.7006C257.207 5.52685 257.792 5.43997 258.427 5.43997ZM262.008 17.7351C262.008 17.448 261.928 17.2176 261.77 17.0438C261.611 16.8701 261.396 16.7379 261.124 16.6472C260.852 16.549 260.538 16.4772 260.183 16.4319C259.828 16.3866 259.454 16.3564 259.062 16.3412C258.669 16.3186 258.268 16.2959 257.86 16.2733C257.452 16.2506 257.063 16.209 256.693 16.1486C256.263 16.3526 255.911 16.6019 255.639 16.8965C255.375 17.1911 255.243 17.5424 255.243 17.9504C255.243 18.2072 255.307 18.4452 255.435 18.6643C255.571 18.8909 255.775 19.0836 256.047 19.2422C256.319 19.4084 256.659 19.5368 257.067 19.6275C257.483 19.7257 257.97 19.7748 258.529 19.7748C259.073 19.7748 259.56 19.7257 259.991 19.6275C260.421 19.5293 260.784 19.3895 261.079 19.2082C261.381 19.0269 261.611 18.8116 261.77 18.5623C261.928 18.313 262.008 18.0373 262.008 17.7351ZM258.427 11.5025C258.835 11.5025 259.194 11.4459 259.503 11.3326C259.821 11.2192 260.085 11.0606 260.297 10.8566C260.508 10.6526 260.667 10.4109 260.773 10.1314C260.878 9.8443 260.931 9.53078 260.931 9.19082C260.931 8.48825 260.716 7.92921 260.285 7.5137C259.862 7.0982 259.243 6.89045 258.427 6.89045C257.619 6.89045 256.999 7.0982 256.568 7.5137C256.145 7.92921 255.934 8.48825 255.934 9.19082C255.934 9.53078 255.987 9.8443 256.093 10.1314C256.206 10.4109 256.368 10.6526 256.58 10.8566C256.791 11.0606 257.052 11.2192 257.362 11.3326C257.671 11.4459 258.027 11.5025 258.427 11.5025ZM278.6 17.1118C278.313 17.1118 278.132 16.9721 278.056 16.6925L277.875 15.2987C277.384 15.8955 276.821 16.3752 276.186 16.7379C275.559 17.0929 274.838 17.2705 274.022 17.2705C273.365 17.2705 272.768 17.1458 272.231 16.8965C271.695 16.6397 271.238 16.2657 270.86 15.7747C270.483 15.2836 270.192 14.6717 269.988 13.9389C269.784 13.2061 269.682 12.3638 269.682 11.4119C269.682 10.5658 269.795 9.78008 270.022 9.05484C270.248 8.32205 270.573 7.68746 270.996 7.15108C271.427 6.61471 271.948 6.19543 272.56 5.89324C273.172 5.58351 273.867 5.42864 274.645 5.42864C275.348 5.42864 275.948 5.54951 276.447 5.79126C276.946 6.02545 277.391 6.35785 277.784 6.78846V0.41994H279.801V17.1118H278.6ZM274.69 15.6387C275.348 15.6387 275.922 15.4876 276.413 15.1854C276.912 14.8832 277.369 14.4564 277.784 13.9049V8.35226C277.414 7.85366 277.006 7.50615 276.56 7.30973C276.122 7.10576 275.635 7.00377 275.098 7.00377C274.026 7.00377 273.202 7.38528 272.628 8.14829C272.054 8.9113 271.767 9.99917 271.767 11.4119C271.767 12.1598 271.831 12.8019 271.96 13.3383C272.088 13.8671 272.277 14.3053 272.526 14.6528C272.775 14.9928 273.081 15.2421 273.444 15.4007C273.807 15.5593 274.222 15.6387 274.69 15.6387ZM291.611 17.1118H290.716C290.52 17.1118 290.361 17.0816 290.24 17.0212C290.119 16.9607 290.04 16.8323 290.002 16.6359L289.775 15.5707C289.473 15.8426 289.179 16.0882 288.891 16.3073C288.604 16.5188 288.302 16.7001 287.985 16.8512C287.668 16.9947 287.328 17.1043 286.965 17.1798C286.61 17.2554 286.213 17.2931 285.775 17.2931C285.329 17.2931 284.91 17.2327 284.517 17.1118C284.132 16.9834 283.796 16.7945 283.509 16.5452C283.222 16.2959 282.991 15.9824 282.818 15.6047C282.651 15.2194 282.568 14.7661 282.568 14.2448C282.568 13.7916 282.693 13.3572 282.942 12.9417C283.192 12.5186 283.592 12.1447 284.143 11.8198C284.702 11.495 285.431 11.2306 286.33 11.0266C287.229 10.8151 288.329 10.6942 289.628 10.664V9.76875C289.628 8.87731 289.435 8.20495 289.05 7.75167C288.672 7.29084 288.11 7.06043 287.362 7.06043C286.871 7.06043 286.455 7.12464 286.115 7.25307C285.783 7.37394 285.492 7.5137 285.243 7.67235C285.001 7.82344 284.789 7.9632 284.608 8.09163C284.434 8.2125 284.261 8.27294 284.087 8.27294C283.951 8.27294 283.83 8.23895 283.724 8.17095C283.626 8.09541 283.547 8.00475 283.486 7.89899L283.124 7.25307C283.758 6.64115 284.442 6.1841 285.175 5.88191C285.907 5.57973 286.72 5.42864 287.611 5.42864C288.253 5.42864 288.823 5.5344 289.322 5.74593C289.821 5.95746 290.24 6.25209 290.58 6.62982C290.92 7.00755 291.177 7.4646 291.351 8.00098C291.524 8.53735 291.611 9.12661 291.611 9.76875V17.1118ZM286.376 15.8766C286.731 15.8766 287.056 15.8426 287.35 15.7747C287.645 15.6991 287.921 15.5971 288.178 15.4687C288.442 15.3327 288.691 15.1703 288.925 14.9814C289.167 14.7926 289.401 14.5772 289.628 14.3355V11.9445C288.699 11.9747 287.909 12.0502 287.26 12.1711C286.61 12.2844 286.081 12.4355 285.673 12.6244C285.265 12.8133 284.967 13.0361 284.778 13.293C284.597 13.5498 284.506 13.8369 284.506 14.1542C284.506 14.4564 284.555 14.717 284.653 14.9361C284.752 15.1552 284.884 15.3365 285.05 15.48C285.216 15.616 285.413 15.718 285.639 15.786C285.866 15.8464 286.111 15.8766 286.376 15.8766ZM309.373 0.873216V2.66365H301.576V8.05764H307.888V9.78008H301.576V15.3214H309.373V17.1118H299.367V0.873216H309.373ZM318.643 11.5025C318.643 12.4091 318.53 13.2212 318.303 13.9389C318.084 14.6566 317.756 15.2647 317.318 15.7633C316.887 16.2544 316.354 16.6321 315.72 16.8965C315.085 17.1609 314.356 17.2931 313.533 17.2931C312.8 17.2931 312.037 17.1874 311.244 16.9758C311.259 16.7568 311.278 16.5414 311.3 16.3299C311.323 16.1108 311.346 15.8955 311.368 15.684C311.383 15.5556 311.429 15.4536 311.504 15.378C311.587 15.2949 311.708 15.2534 311.867 15.2534C312.003 15.2534 312.184 15.2874 312.411 15.3554C312.637 15.4234 312.94 15.4574 313.317 15.4574C313.816 15.4574 314.258 15.3818 314.643 15.2307C315.036 15.0796 315.365 14.8454 315.629 14.5281C315.901 14.2109 316.105 13.8067 316.241 13.3156C316.385 12.817 316.456 12.2278 316.456 11.5479V0.873216H318.643V11.5025ZM334.051 13.7576C334.172 13.7576 334.281 13.8067 334.38 13.9049L335.241 14.8454C334.576 15.616 333.768 16.2166 332.816 16.6472C331.871 17.0778 330.731 17.2931 329.394 17.2931C328.223 17.2931 327.161 17.0929 326.209 16.6925C325.257 16.2846 324.445 15.718 323.773 14.9928C323.101 14.26 322.579 13.3836 322.209 12.3638C321.839 11.3439 321.654 10.222 321.654 8.99818C321.654 7.77434 321.85 6.65248 322.243 5.63261C322.644 4.61274 323.203 3.73641 323.92 3.00361C324.638 2.27082 325.495 1.70422 326.493 1.30383C327.497 0.895879 328.604 0.691905 329.813 0.691905C331.006 0.691905 332.034 0.876993 332.895 1.24717C333.764 1.61734 334.534 2.11972 335.207 2.75431L334.493 3.76285C334.44 3.83839 334.38 3.90261 334.312 3.95549C334.244 4.00082 334.145 4.02348 334.017 4.02348C333.919 4.02348 333.813 3.98949 333.7 3.92149C333.594 3.84595 333.466 3.75529 333.314 3.64953C333.163 3.54377 332.986 3.43045 332.782 3.30957C332.578 3.1887 332.336 3.07538 332.057 2.96962C331.777 2.86385 331.452 2.77697 331.082 2.70898C330.712 2.63344 330.285 2.59566 329.802 2.59566C328.933 2.59566 328.136 2.74676 327.411 3.04894C326.693 3.34357 326.073 3.76663 325.552 4.31811C325.031 4.8696 324.623 5.54196 324.328 6.33519C324.041 7.12842 323.898 8.01608 323.898 8.99818C323.898 10.0105 324.041 10.9133 324.328 11.7065C324.623 12.4997 325.019 13.1721 325.518 13.7236C326.024 14.2675 326.621 14.683 327.309 14.9701C327.996 15.2572 328.736 15.4007 329.53 15.4007C330.013 15.4007 330.447 15.3743 330.833 15.3214C331.218 15.2609 331.573 15.1703 331.898 15.0494C332.23 14.9285 332.536 14.7774 332.816 14.5961C333.103 14.4073 333.39 14.1844 333.677 13.9276C333.805 13.8142 333.93 13.7576 334.051 13.7576ZM346.11 11.2419C346.215 11.4232 346.306 11.6158 346.382 11.8198C346.465 12.0162 346.544 12.2164 346.62 12.4204C346.695 12.2089 346.775 12.0087 346.858 11.8198C346.941 11.6234 347.035 11.427 347.141 11.2306L352.637 1.24717C352.735 1.07341 352.837 0.967648 352.943 0.929875C353.049 0.892102 353.2 0.873216 353.396 0.873216H355.017V17.1118H353.09V5.17933C353.09 5.02069 353.094 4.85071 353.101 4.6694C353.109 4.48809 353.12 4.303 353.135 4.11414L347.572 14.2675C347.383 14.6075 347.118 14.7774 346.778 14.7774H346.461C346.121 14.7774 345.857 14.6075 345.668 14.2675L339.979 4.08014C340.002 4.27656 340.017 4.4692 340.024 4.65807C340.04 4.84693 340.047 5.02069 340.047 5.17933V17.1118H338.121V0.873216H339.741C339.938 0.873216 340.089 0.892102 340.194 0.929875C340.3 0.967648 340.402 1.07341 340.5 1.24717L346.11 11.2419ZM361.871 0.873216V7.35506C361.871 7.69501 361.863 8.02742 361.848 8.35226C361.84 8.67711 361.825 9.00574 361.803 9.33814C361.78 9.66299 361.75 9.99917 361.712 10.3467C361.682 10.6866 361.644 11.053 361.599 11.4459H360.228C360.182 11.053 360.141 10.6866 360.103 10.3467C360.073 9.99917 360.046 9.66299 360.024 9.33814C360.001 9.00574 359.982 8.67711 359.967 8.35226C359.959 8.02742 359.956 7.69501 359.956 7.35506V0.873216H361.871ZM359.468 15.8653C359.468 15.6689 359.502 15.4838 359.57 15.31C359.646 15.1363 359.744 14.9852 359.865 14.8568C359.993 14.7283 360.144 14.6264 360.318 14.5508C360.492 14.4753 360.677 14.4375 360.873 14.4375C361.07 14.4375 361.255 14.4753 361.429 14.5508C361.602 14.6264 361.754 14.7283 361.882 14.8568C362.01 14.9852 362.109 15.1363 362.177 15.31C362.252 15.4838 362.29 15.6689 362.29 15.8653C362.29 16.0693 362.252 16.2581 362.177 16.4319C362.109 16.5981 362.01 16.7454 361.882 16.8738C361.754 17.0023 361.602 17.1005 361.429 17.1685C361.255 17.244 361.07 17.2818 360.873 17.2818C360.677 17.2818 360.492 17.244 360.318 17.1685C360.144 17.1005 359.993 17.0023 359.865 16.8738C359.744 16.7454 359.646 16.5981 359.57 16.4319C359.502 16.2581 359.468 16.0693 359.468 15.8653ZM370.599 15.8653C370.599 15.6689 370.633 15.4838 370.701 15.31C370.777 15.1363 370.875 14.9852 370.996 14.8568C371.124 14.7283 371.275 14.6264 371.449 14.5508C371.623 14.4753 371.808 14.4375 372.004 14.4375C372.201 14.4375 372.386 14.4753 372.56 14.5508C372.733 14.6264 372.884 14.7283 373.013 14.8568C373.141 14.9852 373.239 15.1363 373.307 15.31C373.383 15.4838 373.421 15.6689 373.421 15.8653C373.421 16.0693 373.383 16.2581 373.307 16.4319C373.239 16.5981 373.141 16.7454 373.013 16.8738C372.884 17.0023 372.733 17.1005 372.56 17.1685C372.386 17.244 372.201 17.2818 372.004 17.2818C371.808 17.2818 371.623 17.244 371.449 17.1685C371.275 17.1005 371.124 17.0023 370.996 16.8738C370.875 16.7454 370.777 16.5981 370.701 16.4319C370.633 16.2581 370.599 16.0693 370.599 15.8653ZM370.599 7.36639C370.599 7.16997 370.633 6.98488 370.701 6.81113C370.777 6.63737 370.875 6.48628 370.996 6.35785C371.124 6.22942 371.275 6.12744 371.449 6.05189C371.623 5.97634 371.808 5.93857 372.004 5.93857C372.201 5.93857 372.386 5.97634 372.56 6.05189C372.733 6.12744 372.884 6.22942 373.013 6.35785C373.141 6.48628 373.239 6.63737 373.307 6.81113C373.383 6.98488 373.421 7.16997 373.421 7.36639C373.421 7.57036 373.383 7.75923 373.307 7.93298C373.239 8.09919 373.141 8.2465 373.013 8.37493C372.884 8.50336 372.733 8.60534 372.56 8.68089C372.386 8.74888 372.201 8.78288 372.004 8.78288C371.808 8.78288 371.623 8.74888 371.449 8.68089C371.275 8.60534 371.124 8.50336 370.996 8.37493C370.875 8.2465 370.777 8.09919 370.701 7.93298C370.633 7.75923 370.599 7.57036 370.599 7.36639ZM390.905 8.99818C390.905 10.2145 390.712 11.3212 390.327 12.3184C389.942 13.3156 389.398 14.1693 388.695 14.8794C387.993 15.5896 387.15 16.1411 386.168 16.5339C385.186 16.9192 384.098 17.1118 382.905 17.1118H376.831V0.873216H382.905C384.098 0.873216 385.186 1.06964 386.168 1.46247C387.15 1.84776 387.993 2.39924 388.695 3.11693C389.398 3.82706 389.942 4.68073 390.327 5.67794C390.712 6.67514 390.905 7.78189 390.905 8.99818ZM388.65 8.99818C388.65 8.00098 388.514 7.10953 388.242 6.32386C387.97 5.53818 387.585 4.87337 387.086 4.32944C386.587 3.78551 385.983 3.37001 385.273 3.08293C384.563 2.79586 383.773 2.65232 382.905 2.65232H379.04V15.3327H382.905C383.773 15.3327 384.563 15.1892 385.273 14.9021C385.983 14.615 386.587 14.2033 387.086 13.6669C387.585 13.123 387.97 12.4582 388.242 11.6725C388.514 10.8868 388.65 9.99539 388.65 8.99818ZM407.969 8.99818C407.969 10.2145 407.776 11.3212 407.391 12.3184C407.006 13.3156 406.462 14.1693 405.759 14.8794C405.057 15.5896 404.214 16.1411 403.232 16.5339C402.25 16.9192 401.162 17.1118 399.969 17.1118H393.895V0.873216H399.969C401.162 0.873216 402.25 1.06964 403.232 1.46247C404.214 1.84776 405.057 2.39924 405.759 3.11693C406.462 3.82706 407.006 4.68073 407.391 5.67794C407.776 6.67514 407.969 7.78189 407.969 8.99818ZM405.714 8.99818C405.714 8.00098 405.578 7.10953 405.306 6.32386C405.034 5.53818 404.649 4.87337 404.15 4.32944C403.652 3.78551 403.047 3.37001 402.337 3.08293C401.627 2.79586 400.838 2.65232 399.969 2.65232H396.105V15.3327H399.969C400.838 15.3327 401.627 15.1892 402.337 14.9021C403.047 14.615 403.652 14.2033 404.15 13.6669C404.649 13.123 405.034 12.4582 405.306 11.6725C405.578 10.8868 405.714 9.99539 405.714 8.99818ZM425.033 8.99818C425.033 10.2145 424.841 11.3212 424.455 12.3184C424.07 13.3156 423.526 14.1693 422.824 14.8794C422.121 15.5896 421.279 16.1411 420.297 16.5339C419.314 16.9192 418.227 17.1118 417.033 17.1118H410.959V0.873216H417.033C418.227 0.873216 419.314 1.06964 420.297 1.46247C421.279 1.84776 422.121 2.39924 422.824 3.11693C423.526 3.82706 424.07 4.68073 424.455 5.67794C424.841 6.67514 425.033 7.78189 425.033 8.99818ZM422.778 8.99818C422.778 8.00098 422.642 7.10953 422.37 6.32386C422.098 5.53818 421.713 4.87337 421.214 4.32944C420.716 3.78551 420.112 3.37001 419.401 3.08293C418.691 2.79586 417.902 2.65232 417.033 2.65232H413.169V15.3327H417.033C417.902 15.3327 418.691 15.1892 419.401 14.9021C420.112 14.615 420.716 14.2033 421.214 13.6669C421.713 13.123 422.098 12.4582 422.37 11.6725C422.642 10.8868 422.778 9.99539 422.778 8.99818Z" fill="#001238"/>
</svg>
