<svg width="244" height="28" viewBox="0 0 244 28" fill="none" xmlns="http://www.w3.org/2000/svg">
<path d="M0.166876 27.457V0.945539H9.31572C11.0514 0.945539 12.5303 1.11055 13.7526 1.44057C14.9872 1.77059 15.9955 2.24117 16.7778 2.85231C17.5723 3.46346 18.1529 4.20295 18.5196 5.07077C18.8863 5.9386 19.0696 6.91643 19.0696 8.00427C19.0696 8.62764 18.9779 9.22656 18.7946 9.80104C18.6112 10.3633 18.324 10.895 17.9329 11.3961C17.554 11.885 17.0651 12.3312 16.4661 12.7345C15.8794 13.1379 15.1766 13.4801 14.3577 13.7613C18.0001 14.5802 19.8213 16.5481 19.8213 19.6649C19.8213 20.7894 19.6074 21.8284 19.1796 22.7818C18.7518 23.7352 18.1284 24.5602 17.3095 25.2569C16.4906 25.9414 15.4822 26.4792 14.2843 26.8703C13.0865 27.2615 11.7175 27.457 10.1774 27.457H0.166876ZM5.09882 15.833V23.6068H10.1041C11.0208 23.6068 11.7848 23.4968 12.3959 23.2768C13.0193 23.0568 13.5143 22.7634 13.881 22.3967C14.2599 22.0301 14.5288 21.6023 14.6877 21.1133C14.8588 20.6244 14.9444 20.105 14.9444 19.5549C14.9444 18.9804 14.8527 18.4671 14.6694 18.0148C14.486 17.5504 14.1988 17.1592 13.8076 16.8414C13.4165 16.5114 12.9154 16.2608 12.3042 16.0897C11.6931 15.9186 10.9536 15.833 10.0858 15.833H5.09882ZM5.09882 12.4229H9.04071C10.7152 12.4229 11.9864 12.1173 12.8543 11.5061C13.7221 10.895 14.156 9.92327 14.156 8.59097C14.156 7.20978 13.7649 6.22584 12.9826 5.63914C12.2003 5.05244 10.978 4.75909 9.31572 4.75909H5.09882V12.4229ZM31.8255 8.35262C33.2311 8.35262 34.5023 8.57875 35.639 9.031C36.788 9.48324 37.7658 10.1249 38.5725 10.9561C39.3792 11.7873 40.0026 12.8018 40.4426 13.9996C40.8826 15.1975 41.1026 16.5359 41.1026 18.0148C41.1026 19.506 40.8826 20.8505 40.4426 22.0484C40.0026 23.2462 39.3792 24.2669 38.5725 25.1102C37.7658 25.9536 36.788 26.6014 35.639 27.0537C34.5023 27.5059 33.2311 27.732 31.8255 27.732C30.4198 27.732 29.1425 27.5059 27.9936 27.0537C26.8446 26.6014 25.8607 25.9536 25.0417 25.1102C24.235 24.2669 23.6055 23.2462 23.1533 22.0484C22.7133 20.8505 22.4933 19.506 22.4933 18.0148C22.4933 16.5359 22.7133 15.1975 23.1533 13.9996C23.6055 12.8018 24.235 11.7873 25.0417 10.9561C25.8607 10.1249 26.8446 9.48324 27.9936 9.031C29.1425 8.57875 30.4198 8.35262 31.8255 8.35262ZM31.8255 24.2485C33.39 24.2485 34.545 23.7229 35.2906 22.6718C36.0485 21.6206 36.4274 20.0805 36.4274 18.0515C36.4274 16.0225 36.0485 14.4763 35.2906 13.4129C34.545 12.3495 33.39 11.8178 31.8255 11.8178C30.2365 11.8178 29.0631 12.3556 28.3053 13.4312C27.5474 14.4946 27.1685 16.0347 27.1685 18.0515C27.1685 20.0683 27.5474 21.6084 28.3053 22.6718C29.0631 23.7229 30.2365 24.2485 31.8255 24.2485ZM59.3768 27.457H57.3417C56.9139 27.457 56.5778 27.3959 56.3333 27.2737C56.0889 27.1392 55.9055 26.8764 55.7833 26.4853L55.38 25.1469C54.9033 25.5747 54.4327 25.9536 53.9682 26.2836C53.516 26.6014 53.0454 26.8703 52.5565 27.0903C52.0675 27.3104 51.5481 27.4754 50.998 27.5854C50.448 27.6954 49.8369 27.7504 49.1646 27.7504C48.3701 27.7504 47.6367 27.6465 46.9645 27.4387C46.2922 27.2187 45.7116 26.8948 45.2227 26.467C44.746 26.0392 44.3732 25.5075 44.1043 24.8719C43.8354 24.2363 43.701 23.4968 43.701 22.6534C43.701 21.9445 43.8843 21.2478 44.251 20.5633C44.6299 19.8666 45.2533 19.2432 46.1211 18.6932C46.9889 18.131 48.144 17.6665 49.5863 17.2998C51.0286 16.9331 52.8193 16.7253 54.9583 16.6764V15.5764C54.9583 14.3174 54.6894 13.3885 54.1516 12.7895C53.626 12.1784 52.8559 11.8728 51.8414 11.8728C51.108 11.8728 50.4969 11.9584 50.008 12.1295C49.5191 12.3006 49.0913 12.4962 48.7246 12.7162C48.3701 12.924 48.0401 13.1134 47.7345 13.2846C47.429 13.4557 47.0928 13.5412 46.7261 13.5412C46.4206 13.5412 46.1578 13.4618 45.9378 13.3029C45.7177 13.144 45.5405 12.9484 45.4061 12.7162L44.581 11.2678C46.7445 9.28768 49.3541 8.29762 52.4098 8.29762C53.5099 8.29762 54.4877 8.48096 55.3433 8.84765C56.2111 9.20211 56.9445 9.70325 57.5434 10.3511C58.1423 10.9867 58.5946 11.7506 58.9002 12.6429C59.2179 13.5351 59.3768 14.513 59.3768 15.5764V27.457ZM50.5764 24.6335C51.0408 24.6335 51.4686 24.5908 51.8598 24.5052C52.2509 24.4196 52.6176 24.2913 52.9598 24.1202C53.3143 23.9491 53.6504 23.7413 53.9682 23.4968C54.2982 23.2401 54.6282 22.9407 54.9583 22.5984V19.4266C53.6382 19.4877 52.532 19.6038 51.6397 19.7749C50.7597 19.9338 50.0508 20.1416 49.513 20.3983C48.9752 20.655 48.5901 20.9544 48.3579 21.2967C48.1379 21.6389 48.0279 22.0117 48.0279 22.4151C48.0279 23.2096 48.2601 23.7779 48.7246 24.1202C49.2013 24.4624 49.8185 24.6335 50.5764 24.6335ZM74.9954 12.3128C74.8732 12.5084 74.7449 12.649 74.6104 12.7345C74.476 12.8079 74.3048 12.8445 74.097 12.8445C73.877 12.8445 73.6387 12.7834 73.382 12.6612C73.1375 12.539 72.8503 12.4045 72.5203 12.2578C72.1903 12.0989 71.8114 11.9584 71.3836 11.8362C70.968 11.7139 70.473 11.6528 69.8985 11.6528C69.0062 11.6528 68.3034 11.8423 67.79 12.2212C67.2767 12.6001 67.02 13.0951 67.02 13.7063C67.02 14.1096 67.1483 14.4519 67.405 14.733C67.6739 15.0019 68.0223 15.2402 68.4501 15.448C68.8901 15.6558 69.3851 15.8453 69.9351 16.0164C70.4852 16.1753 71.0474 16.3525 71.6219 16.5481C72.1964 16.7437 72.7586 16.9698 73.3087 17.2265C73.8587 17.4709 74.3476 17.7887 74.7754 18.1798C75.2154 18.5588 75.5638 19.0171 75.8205 19.5549C76.0894 20.0927 76.2238 20.7405 76.2238 21.4984C76.2238 22.4029 76.0588 23.2401 75.7288 24.0102C75.3988 24.768 74.916 25.428 74.2804 25.9903C73.6448 26.5403 72.8564 26.9742 71.9153 27.292C70.9863 27.5976 69.9168 27.7504 68.7067 27.7504C68.0589 27.7504 67.4233 27.6893 66.8 27.567C66.1888 27.457 65.596 27.2981 65.0215 27.0903C64.4593 26.8826 63.9337 26.6381 63.4448 26.357C62.9681 26.0758 62.5464 25.7703 62.1797 25.4403L63.2248 23.7168C63.3592 23.509 63.5181 23.3501 63.7015 23.2401C63.8848 23.1301 64.117 23.0751 64.3982 23.0751C64.6793 23.0751 64.9421 23.1546 65.1865 23.3135C65.4432 23.4724 65.7366 23.6435 66.0666 23.8268C66.3966 24.0102 66.7816 24.1813 67.2217 24.3402C67.6739 24.4991 68.2423 24.5785 68.9268 24.5785C69.4646 24.5785 69.9229 24.5174 70.3018 24.3952C70.693 24.2607 71.0108 24.0896 71.2552 23.8818C71.5119 23.674 71.6952 23.4357 71.8053 23.1668C71.9275 22.8857 71.9886 22.5984 71.9886 22.3051C71.9886 21.8651 71.8541 21.5045 71.5852 21.2233C71.3286 20.9422 70.9802 20.6978 70.5402 20.49C70.1124 20.2822 69.6174 20.0988 69.0551 19.9399C68.5051 19.7688 67.9367 19.5855 67.35 19.3899C66.7755 19.1943 66.2072 18.9682 65.6449 18.7115C65.0949 18.4426 64.5998 18.1065 64.1598 17.7031C63.732 17.2998 63.3837 16.8048 63.1148 16.2181C62.8581 15.6314 62.7297 14.9224 62.7297 14.0913C62.7297 13.3212 62.8825 12.5879 63.1881 11.8912C63.4937 11.1944 63.9398 10.5894 64.5265 10.0761C65.1254 9.55047 65.8649 9.13489 66.745 8.82932C67.6372 8.51152 68.664 8.35262 69.8251 8.35262C71.1208 8.35262 72.3003 8.56652 73.3637 8.99433C74.4271 9.42213 75.3132 9.98438 76.0222 10.6811L74.9954 12.3128ZM79.2499 14.4946H88.7471V18.2715H79.2499V14.4946ZM102.438 27.457H98.3313L90.8509 8.64597H94.6095C94.9395 8.64597 95.2145 8.72542 95.4345 8.88432C95.6668 9.04322 95.8257 9.2449 95.9112 9.48935L99.5414 19.5366C99.7492 20.1233 99.9203 20.6978 100.055 21.26C100.201 21.8223 100.33 22.3845 100.44 22.9468C100.55 22.3845 100.672 21.8223 100.806 21.26C100.953 20.6978 101.137 20.1233 101.357 19.5366L105.078 9.48935C105.164 9.2449 105.317 9.04322 105.537 8.88432C105.757 8.72542 106.02 8.64597 106.325 8.64597H109.9L102.438 27.457ZM117.388 8.64597V27.457H112.86V8.64597H117.388ZM118.067 3.164C118.067 3.55513 117.987 3.92182 117.828 4.26406C117.669 4.6063 117.455 4.90576 117.187 5.16244C116.93 5.41912 116.624 5.62691 116.27 5.78581C115.915 5.93249 115.536 6.00582 115.133 6.00582C114.742 6.00582 114.369 5.93249 114.015 5.78581C113.672 5.62691 113.373 5.41912 113.116 5.16244C112.86 4.90576 112.652 4.6063 112.493 4.26406C112.346 3.92182 112.273 3.55513 112.273 3.164C112.273 2.76064 112.346 2.38173 112.493 2.02727C112.652 1.6728 112.86 1.36723 113.116 1.11055C113.373 0.853868 113.672 0.65219 114.015 0.505516C114.369 0.346618 114.742 0.267169 115.133 0.267169C115.536 0.267169 115.915 0.346618 116.27 0.505516C116.624 0.65219 116.93 0.853868 117.187 1.11055C117.455 1.36723 117.669 1.6728 117.828 2.02727C117.987 2.38173 118.067 2.76064 118.067 3.164ZM122.521 27.457V8.64597H125.29C125.876 8.64597 126.261 8.92099 126.445 9.47102L126.756 10.9561C127.135 10.565 127.533 10.2105 127.948 9.89271C128.376 9.57491 128.822 9.2999 129.287 9.06766C129.763 8.83543 130.271 8.6582 130.808 8.53597C131.346 8.41374 131.933 8.35262 132.568 8.35262C133.595 8.35262 134.506 8.52986 135.3 8.88432C136.095 9.22656 136.755 9.71548 137.28 10.3511C137.818 10.9744 138.222 11.7261 138.49 12.6062C138.772 13.474 138.912 14.4335 138.912 15.4847V27.457H134.384V15.4847C134.384 14.3357 134.115 13.4496 133.577 12.8262C133.051 12.1906 132.257 11.8728 131.193 11.8728C130.411 11.8728 129.678 12.0501 128.993 12.4045C128.309 12.759 127.661 13.2418 127.05 13.8529V27.457H122.521ZM156.6 27.457C156.013 27.457 155.628 27.182 155.445 26.632L155.078 24.8169C154.687 25.2569 154.277 25.6542 153.85 26.0086C153.422 26.3631 152.957 26.6687 152.456 26.9253C151.967 27.182 151.436 27.3776 150.861 27.512C150.299 27.6587 149.688 27.732 149.028 27.732C148.001 27.732 147.06 27.5181 146.204 27.0903C145.348 26.6625 144.609 26.0453 143.986 25.2386C143.374 24.4196 142.898 23.4112 142.556 22.2134C142.226 21.0156 142.061 19.6466 142.061 18.1065C142.061 16.7131 142.25 15.4175 142.629 14.2196C143.008 13.0218 143.552 11.9828 144.261 11.1028C144.97 10.2227 145.819 9.53825 146.809 9.04933C147.799 8.54819 148.911 8.29762 150.146 8.29762C151.197 8.29762 152.096 8.46874 152.841 8.81098C153.587 9.141 154.253 9.58714 154.84 10.1494V0.212165H159.368V27.457H156.6ZM150.568 24.1385C151.509 24.1385 152.309 23.9429 152.969 23.5518C153.63 23.1607 154.253 22.6045 154.84 21.8834V13.4496C154.326 12.8262 153.764 12.3862 153.153 12.1295C152.554 11.8728 151.906 11.7445 151.209 11.7445C150.525 11.7445 149.902 11.8728 149.339 12.1295C148.789 12.3862 148.319 12.7773 147.928 13.3029C147.549 13.8163 147.255 14.4763 147.047 15.283C146.84 16.0775 146.736 17.0187 146.736 18.1065C146.736 19.2066 146.821 20.1416 146.992 20.9117C147.176 21.6695 147.433 22.2929 147.763 22.7818C148.093 23.2585 148.496 23.6068 148.973 23.8268C149.449 24.0346 149.981 24.1385 150.568 24.1385ZM179.016 27.457H176.981C176.553 27.457 176.217 27.3959 175.972 27.2737C175.728 27.1392 175.544 26.8764 175.422 26.4853L175.019 25.1469C174.542 25.5747 174.072 25.9536 173.607 26.2836C173.155 26.6014 172.684 26.8703 172.195 27.0903C171.706 27.3104 171.187 27.4754 170.637 27.5854C170.087 27.6954 169.476 27.7504 168.803 27.7504C168.009 27.7504 167.276 27.6465 166.603 27.4387C165.931 27.2187 165.351 26.8948 164.862 26.467C164.385 26.0392 164.012 25.5075 163.743 24.8719C163.474 24.2363 163.34 23.4968 163.34 22.6534C163.34 21.9445 163.523 21.2478 163.89 20.5633C164.269 19.8666 164.892 19.2432 165.76 18.6932C166.628 18.131 167.783 17.6665 169.225 17.2998C170.667 16.9331 172.458 16.7253 174.597 16.6764V15.5764C174.597 14.3174 174.328 13.3885 173.79 12.7895C173.265 12.1784 172.495 11.8728 171.48 11.8728C170.747 11.8728 170.136 11.9584 169.647 12.1295C169.158 12.3006 168.73 12.4962 168.363 12.7162C168.009 12.924 167.679 13.1134 167.373 13.2846C167.068 13.4557 166.732 13.5412 166.365 13.5412C166.059 13.5412 165.797 13.4618 165.577 13.3029C165.357 13.144 165.179 12.9484 165.045 12.7162L164.22 11.2678C166.383 9.28768 168.993 8.29762 172.049 8.29762C173.149 8.29762 174.127 8.48096 174.982 8.84765C175.85 9.20211 176.583 9.70325 177.182 10.3511C177.781 10.9867 178.233 11.7506 178.539 12.6429C178.857 13.5351 179.016 14.513 179.016 15.5764V27.457ZM170.215 24.6335C170.68 24.6335 171.108 24.5908 171.499 24.5052C171.89 24.4196 172.256 24.2913 172.599 24.1202C172.953 23.9491 173.289 23.7413 173.607 23.4968C173.937 23.2401 174.267 22.9407 174.597 22.5984V19.4266C173.277 19.4877 172.171 19.6038 171.279 19.7749C170.399 19.9338 169.69 20.1416 169.152 20.3983C168.614 20.655 168.229 20.9544 167.997 21.2967C167.777 21.6389 167.667 22.0117 167.667 22.4151C167.667 23.2096 167.899 23.7779 168.363 24.1202C168.84 24.4624 169.457 24.6335 170.215 24.6335ZM194.634 12.3128C194.512 12.5084 194.384 12.649 194.249 12.7345C194.115 12.8079 193.944 12.8445 193.736 12.8445C193.516 12.8445 193.278 12.7834 193.021 12.6612C192.776 12.539 192.489 12.4045 192.159 12.2578C191.829 12.0989 191.45 11.9584 191.022 11.8362C190.607 11.7139 190.112 11.6528 189.537 11.6528C188.645 11.6528 187.942 11.8423 187.429 12.2212C186.916 12.6001 186.659 13.0951 186.659 13.7063C186.659 14.1096 186.787 14.4519 187.044 14.733C187.313 15.0019 187.661 15.2402 188.089 15.448C188.529 15.6558 189.024 15.8453 189.574 16.0164C190.124 16.1753 190.686 16.3525 191.261 16.5481C191.835 16.7437 192.398 16.9698 192.948 17.2265C193.498 17.4709 193.987 17.7887 194.414 18.1798C194.854 18.5588 195.203 19.0171 195.459 19.5549C195.728 20.0927 195.863 20.7405 195.863 21.4984C195.863 22.4029 195.698 23.2401 195.368 24.0102C195.038 24.768 194.555 25.428 193.919 25.9903C193.284 26.5403 192.495 26.9742 191.554 27.292C190.625 27.5976 189.556 27.7504 188.346 27.7504C187.698 27.7504 187.062 27.6893 186.439 27.567C185.828 27.457 185.235 27.2981 184.66 27.0903C184.098 26.8826 183.573 26.6381 183.084 26.357C182.607 26.0758 182.185 25.7703 181.819 25.4403L182.864 23.7168C182.998 23.509 183.157 23.3501 183.34 23.2401C183.524 23.1301 183.756 23.0751 184.037 23.0751C184.318 23.0751 184.581 23.1546 184.825 23.3135C185.082 23.4724 185.375 23.6435 185.705 23.8268C186.036 24.0102 186.421 24.1813 186.861 24.3402C187.313 24.4991 187.881 24.5785 188.566 24.5785C189.103 24.5785 189.562 24.5174 189.941 24.3952C190.332 24.2607 190.65 24.0896 190.894 23.8818C191.151 23.674 191.334 23.4357 191.444 23.1668C191.566 22.8857 191.627 22.5984 191.627 22.3051C191.627 21.8651 191.493 21.5045 191.224 21.2233C190.967 20.9422 190.619 20.6978 190.179 20.49C189.751 20.2822 189.256 20.0988 188.694 19.9399C188.144 19.7688 187.576 19.5855 186.989 19.3899C186.414 19.1943 185.846 18.9682 185.284 18.7115C184.734 18.4426 184.239 18.1065 183.799 17.7031C183.371 17.2998 183.023 16.8048 182.754 16.2181C182.497 15.6314 182.369 14.9224 182.369 14.0913C182.369 13.3212 182.521 12.5879 182.827 11.8912C183.133 11.1944 183.579 10.5894 184.165 10.0761C184.764 9.55047 185.504 9.13489 186.384 8.82932C187.276 8.51152 188.303 8.35262 189.464 8.35262C190.76 8.35262 191.939 8.56652 193.003 8.99433C194.066 9.42213 194.952 9.98438 195.661 10.6811L194.634 12.3128ZM221.307 27.457H219.271C218.844 27.457 218.507 27.3959 218.263 27.2737C218.019 27.1392 217.835 26.8764 217.713 26.4853L217.31 25.1469C216.833 25.5747 216.362 25.9536 215.898 26.2836C215.446 26.6014 214.975 26.8703 214.486 27.0903C213.997 27.3104 213.478 27.4754 212.928 27.5854C212.378 27.6954 211.767 27.7504 211.094 27.7504C210.3 27.7504 209.566 27.6465 208.894 27.4387C208.222 27.2187 207.641 26.8948 207.152 26.467C206.676 26.0392 206.303 25.5075 206.034 24.8719C205.765 24.2363 205.631 23.4968 205.631 22.6534C205.631 21.9445 205.814 21.2478 206.181 20.5633C206.56 19.8666 207.183 19.2432 208.051 18.6932C208.919 18.131 210.074 17.6665 211.516 17.2998C212.958 16.9331 214.749 16.7253 216.888 16.6764V15.5764C216.888 14.3174 216.619 13.3885 216.081 12.7895C215.556 12.1784 214.786 11.8728 213.771 11.8728C213.038 11.8728 212.427 11.9584 211.938 12.1295C211.449 12.3006 211.021 12.4962 210.654 12.7162C210.3 12.924 209.97 13.1134 209.664 13.2846C209.359 13.4557 209.022 13.5412 208.656 13.5412C208.35 13.5412 208.087 13.4618 207.867 13.3029C207.647 13.144 207.47 12.9484 207.336 12.7162L206.511 11.2678C208.674 9.28768 211.284 8.29762 214.339 8.29762C215.44 8.29762 216.417 8.48096 217.273 8.84765C218.141 9.20211 218.874 9.70325 219.473 10.3511C220.072 10.9867 220.524 11.7506 220.83 12.6429C221.148 13.5351 221.307 14.513 221.307 15.5764V27.457ZM212.506 24.6335C212.97 24.6335 213.398 24.5908 213.789 24.5052C214.181 24.4196 214.547 24.2913 214.889 24.1202C215.244 23.9491 215.58 23.7413 215.898 23.4968C216.228 23.2401 216.558 22.9407 216.888 22.5984V19.4266C215.568 19.4877 214.462 19.6038 213.569 19.7749C212.689 19.9338 211.98 20.1416 211.443 20.3983C210.905 20.655 210.52 20.9544 210.288 21.2967C210.068 21.6389 209.958 22.0117 209.958 22.4151C209.958 23.2096 210.19 23.7779 210.654 24.1202C211.131 24.4624 211.748 24.6335 212.506 24.6335ZM233.79 8.35262C235.196 8.35262 236.467 8.57875 237.603 9.031C238.752 9.48324 239.73 10.1249 240.537 10.9561C241.344 11.7873 241.967 12.8018 242.407 13.9996C242.847 15.1975 243.067 16.5359 243.067 18.0148C243.067 19.506 242.847 20.8505 242.407 22.0484C241.967 23.2462 241.344 24.2669 240.537 25.1102C239.73 25.9536 238.752 26.6014 237.603 27.0537C236.467 27.5059 235.196 27.732 233.79 27.732C232.384 27.732 231.107 27.5059 229.958 27.0537C228.809 26.6014 227.825 25.9536 227.006 25.1102C226.199 24.2669 225.57 23.2462 225.118 22.0484C224.678 20.8505 224.458 19.506 224.458 18.0148C224.458 16.5359 224.678 15.1975 225.118 13.9996C225.57 12.8018 226.199 11.7873 227.006 10.9561C227.825 10.1249 228.809 9.48324 229.958 9.031C231.107 8.57875 232.384 8.35262 233.79 8.35262ZM233.79 24.2485C235.354 24.2485 236.51 23.7229 237.255 22.6718C238.013 21.6206 238.392 20.0805 238.392 18.0515C238.392 16.0225 238.013 14.4763 237.255 13.4129C236.51 12.3495 235.354 11.8178 233.79 11.8178C232.201 11.8178 231.028 12.3556 230.27 13.4312C229.512 14.4946 229.133 16.0347 229.133 18.0515C229.133 20.0683 229.512 21.6084 230.27 22.6718C231.028 23.7229 232.201 24.2485 233.79 24.2485Z" fill="#001238"/>
</svg>
