<svg width="76" height="76" viewBox="0 0 76 76" fill="none" xmlns="http://www.w3.org/2000/svg">
<path fill-rule="evenodd" clip-rule="evenodd" d="M7.86621 37.9629C7.86621 29.8821 11.0763 22.1322 16.7903 16.4183C22.5043 10.7042 30.2541 7.49414 38.335 7.49414C46.4158 7.49414 54.1656 10.7042 59.8797 16.4183C65.5937 22.1322 68.8037 29.8821 68.8037 37.9629C68.8037 46.0437 65.5937 53.7935 59.8797 59.5076C54.1656 65.2216 46.4158 68.4316 38.335 68.4316C30.2541 68.4316 22.5043 65.2216 16.7903 59.5076C11.0763 53.7935 7.86621 46.0437 7.86621 37.9629ZM38.335 0.462891C28.3894 0.462891 18.8511 4.41377 11.8185 11.4464C4.78584 18.479 0.834961 28.0173 0.834961 37.9629C0.834961 47.9084 4.78584 57.447 11.8185 64.4796C18.8511 71.5118 28.3894 75.4629 38.335 75.4629C48.2804 75.4629 57.819 71.5118 64.8517 64.4796C71.8839 57.447 75.835 47.9084 75.835 37.9629C75.835 28.0173 71.8839 18.479 64.8517 11.4464C57.819 4.41377 48.2804 0.462891 38.335 0.462891ZM40.6787 22.7285C40.6787 21.7961 40.3083 20.9019 39.649 20.2426C38.9897 19.5833 38.0955 19.2129 37.1631 19.2129C36.2307 19.2129 35.3365 19.5833 34.6772 20.2426C34.0179 20.9019 33.6475 21.7961 33.6475 22.7285V39.1348C33.6476 39.8369 33.858 40.5228 34.2515 41.1043C34.645 41.6857 35.2036 42.1361 35.8553 42.3973L47.574 47.0848C48.4323 47.3984 49.3792 47.3651 50.2136 46.9926C51.0479 46.62 51.7046 45.937 52.044 45.0885C52.3834 44.2401 52.3792 43.2928 52.0323 42.4474C51.6854 41.602 51.0226 40.925 50.185 40.5598L40.6787 36.7535V22.7285Z" fill="#F4F4F4"/>
</svg>
