<svg width="812" height="87" viewBox="0 0 812 87" fill="none" xmlns="http://www.w3.org/2000/svg">
<g filter="url(#filter0_d_1801_142127)">
<path d="M47.7149 8.3414V21.4934H22.8509V35.1254H44.8349V47.7974H22.8509V62.5814H47.7149V75.7334H6.43494V8.3414H47.7149ZM112.036 54.2294V8.3414H128.452V54.2294C128.452 68.7254 119.62 76.4054 106.276 76.4054C92.4524 76.4054 82.7564 68.3414 82.7564 53.1734H99.0764C99.0764 58.9334 101.572 61.7174 105.796 61.7174C109.732 61.7174 112.036 59.2214 112.036 54.2294ZM166.768 41.9414C166.768 21.7814 180.784 7.57339 200.656 7.57339C216.688 7.57339 228.784 16.5974 232.624 31.1894H214.576C211.792 25.4294 206.704 22.5494 200.464 22.5494C190.384 22.5494 183.472 30.0374 183.472 41.9414C183.472 53.8454 190.384 61.3334 200.464 61.3334C206.704 61.3334 211.792 58.4534 214.576 52.6934H232.624C228.784 67.2854 216.688 76.2134 200.656 76.2134C180.784 76.2134 166.768 62.1014 166.768 41.9414ZM314.389 8.3414H330.805V75.7334H314.389L286.933 34.1654V75.7334H270.517V8.3414H286.933L314.389 50.1014V8.3414ZM411.825 8.3414V21.4934H386.961V35.1254H408.945V47.7974H386.961V62.5814H411.825V75.7334H370.545V8.3414H411.825ZM446.674 21.4934V8.3414H498.802V21.4934H480.946V75.7334H464.53V21.4934H446.674ZM534.881 75.7334V8.3414H578.753V21.4934H551.297V35.7014H571.841V48.4694H551.297V75.7334H534.881ZM615.221 8.3414H631.637V63.0614H653.141V75.7334H615.221V8.3414ZM688.811 75.7334V8.3414H705.227V75.7334H688.811ZM786.244 75.7334L772.516 55.0934L760.42 75.7334H741.796L763.396 41.4614L741.316 8.3414H760.42L773.956 28.6934L785.86 8.3414H804.484L783.076 42.3254L805.348 75.7334H786.244Z" fill="#F4F4F4"/>
</g>
<defs>
<filter id="filter0_d_1801_142127" x="0.435059" y="5.57324" width="810.913" height="80.832" filterUnits="userSpaceOnUse" color-interpolation-filters="sRGB">
<feFlood flood-opacity="0" result="BackgroundImageFix"/>
<feColorMatrix in="SourceAlpha" type="matrix" values="0 0 0 0 0 0 0 0 0 0 0 0 0 0 0 0 0 0 127 0" result="hardAlpha"/>
<feOffset dy="4"/>
<feGaussianBlur stdDeviation="3"/>
<feComposite in2="hardAlpha" operator="out"/>
<feColorMatrix type="matrix" values="0 0 0 0 0 0 0 0 0 0 0 0 0 0 0 0 0 0 0.35 0"/>
<feBlend mode="normal" in2="BackgroundImageFix" result="effect1_dropShadow_1801_142127"/>
<feBlend mode="normal" in="SourceGraphic" in2="effect1_dropShadow_1801_142127" result="shape"/>
</filter>
</defs>
</svg>
