<svg width="71" height="74" viewBox="0 0 71 74" fill="none" xmlns="http://www.w3.org/2000/svg">
<path d="M41.1465 30.189V57.3362C46.1249 57.3362 50.1617 53.2837 50.1617 48.2874V30.1896H41.1465V30.189Z" fill="#F4F4F4"/>
<path d="M23.1162 30.189V57.3362C28.0946 57.3362 32.1314 53.2837 32.1314 48.2874V30.1896H23.1162V30.189Z" fill="#F4F4F4"/>
<path d="M54.6708 25.6641H18.6094V16.6152H45.6556C50.5552 16.6152 54.544 20.5431 54.6683 25.4293C54.6708 25.509 54.6708 25.585 54.6708 25.6641Z" fill="#F4F4F4"/>
<path d="M70.5085 33.7875C70.3293 32.1916 70.0115 30.6116 69.5968 29.0589C69.1795 27.5067 68.6609 25.9799 68.0347 24.4961C67.5149 23.2864 66.9261 22.1052 66.2758 20.9589C65.7028 19.8733 65.074 18.8168 64.3927 17.7944C62.6154 15.1307 60.4456 12.731 58.0015 10.6522C55.5398 8.59617 52.8013 6.85223 49.8501 5.57418L48.742 5.09942L47.6112 4.67974L47.0445 4.47274L46.469 4.29234C46.0846 4.17523 45.7028 4.0461 45.316 3.93848C43.7647 3.51247 42.1862 3.18457 40.5912 2.96555C34.2044 2.12301 27.5979 3.13076 21.7304 5.78308C15.8659 8.43855 10.7411 12.7449 7.2086 18.1344C7.16301 18.2034 7.12122 18.2749 7.07627 18.3445C8.15392 16.548 9.38671 14.8453 10.7658 13.2665C15.0764 8.27334 20.8604 4.59681 27.182 2.65031C33.5162 0.736718 40.4013 0.58796 46.8489 2.29456C48.4622 2.71108 50.0495 3.23711 51.597 3.86822C53.1394 4.51009 54.64 5.25831 56.0849 6.10465C57.5311 6.94971 58.9215 7.8967 60.2322 8.94686C61.5517 9.98563 62.8028 11.1162 63.9774 12.3265C62.8662 11.0586 61.6701 9.8622 60.3955 8.74936C59.1191 7.63906 57.7501 6.63258 56.3198 5.72167C54.8901 4.80951 53.3965 3.99292 51.8522 3.28079C50.3028 2.57941 48.7047 1.98185 47.0711 1.4938C43.8027 0.518329 40.3867 0.0385075 36.9657 0.00305888C35.2542 -0.0216285 33.5409 0.104341 31.8427 0.336655C30.1452 0.570869 28.461 0.91586 26.8084 1.38049C23.5108 2.33 20.3247 3.71187 17.4216 5.56152L16.3364 6.2591L15.2866 7.00985L14.7636 7.38839L14.259 7.79035C13.9246 8.06065 13.5815 8.32145 13.2535 8.60061C11.9453 9.7204 10.7088 10.9231 9.55766 12.2062C4.98301 17.3678 1.92416 23.8346 0.765461 30.6306C-0.379311 37.426 0.381126 44.5543 3.0626 50.9117C5.74344 57.2563 10.2219 62.8388 15.89 66.7249C21.529 70.6495 28.2773 72.891 35.0871 73.2113C41.8956 73.512 48.7686 71.8947 54.6001 68.4897L53.4617 69.0385L52.8918 69.3107L52.31 69.5557C51.9212 69.7165 51.5368 69.8868 51.1449 70.0393L49.959 70.4679C48.3729 71.0167 46.7589 71.4896 45.1121 71.8029C44.2953 71.9903 43.4614 72.0865 42.637 72.2213C41.8038 72.2998 40.9756 72.4175 40.1392 72.4441C38.472 72.5562 36.7985 72.5157 35.1377 72.3859C28.492 71.8757 22.0191 69.5203 16.6492 65.6469C13.9734 63.701 11.5515 61.4101 9.51207 58.8142C9.30946 58.5723 9.11951 58.321 8.93336 58.0666C12.0118 61.9849 15.9356 65.224 20.3836 67.4136C17.6103 65.8823 15.0238 64.0175 12.7748 61.8032C12.1961 61.2671 11.6788 60.6701 11.1355 60.0998C10.6322 59.4934 10.1009 58.911 9.63681 58.2742C8.66426 57.036 7.80758 55.7111 7.02625 54.3489C5.11914 51.0345 3.77998 47.4003 3.06577 43.6536C2.92141 42.6104 2.8277 41.5602 2.77641 40.5107C2.46742 34.2464 3.90282 27.922 6.89202 22.449C8.39516 19.7194 10.2522 17.1861 12.4405 14.975C12.9704 14.4053 13.5631 13.8995 14.1273 13.3653L15.0213 12.6164L15.4689 12.2436L15.935 11.8935L16.8682 11.1959L17.8345 10.5446C18.1523 10.3205 18.4854 10.1217 18.819 9.92296C19.1534 9.7261 19.4801 9.51467 19.8207 9.3292C23.5843 7.19722 27.7689 5.84131 32.0561 5.31085C26.5368 6.21985 21.2719 8.59744 16.9221 12.1144C12.26 15.8904 8.6535 20.9804 6.73942 26.6724C4.83041 32.3556 4.52966 38.58 5.99038 44.3847C7.41691 50.1938 10.5062 55.5592 14.7585 59.7194C19.0229 63.8649 24.4498 66.7913 30.2389 67.9681C27.382 67.2376 24.6157 66.1628 22.071 64.6961C21.4239 64.3486 20.818 63.932 20.1956 63.5459C19.6004 63.1174 18.9856 62.7179 18.4182 62.2527C17.2526 61.3652 16.1705 60.3733 15.1479 59.3294C11.0488 55.161 8.11973 49.8615 6.83313 44.184C6.1968 41.3469 5.92833 38.4281 6.08789 35.5301C6.10499 34.8041 6.20693 34.0843 6.27024 33.3621L6.43107 32.286L6.51338 31.7485L6.62229 31.2155L6.84263 30.1502L7.11426 29.0968C7.19784 28.7436 7.30738 28.3986 7.41755 28.053C7.52962 27.708 7.62713 27.3586 7.74996 27.018C9.63364 21.5311 13.1173 16.624 17.6331 12.9931C22.1286 9.33553 27.6486 6.94655 33.401 6.19706C39.1546 5.4172 45.1057 6.36545 50.4035 8.76012C53.0438 9.97867 55.5309 11.5473 57.7432 13.4488C59.9542 15.3485 61.9196 17.5463 63.531 19.9859C66.8254 24.8278 68.6584 30.6351 68.8965 36.5259C68.8883 33.5779 68.4988 30.6154 67.6479 27.7751C67.2312 26.3534 66.7184 24.9589 66.1118 23.6029C65.4957 22.2521 64.7885 20.9418 63.9957 19.6834C63.6006 19.0605 63.1834 18.4521 62.7452 17.859C64.4478 20.0315 65.8883 22.4135 67.0198 24.9354C68.8408 29.0481 69.8279 33.5349 69.9184 38.0508C69.8944 40.4581 69.6221 42.8674 69.1029 45.2253C69.3739 44.1701 69.5942 43.1009 69.7677 42.0229C69.7266 42.4388 69.6791 42.8541 69.6221 43.2681C69.4176 44.8227 69.1086 46.3654 68.6958 47.8821C68.2728 49.3962 67.746 50.8825 67.1211 52.3283C66.4974 53.7748 65.773 55.1807 64.9423 56.5239C64.1224 57.8735 63.21 59.1699 62.214 60.4024C63.2638 59.2155 64.237 57.9583 65.1228 56.6385C66.0067 55.3174 66.783 53.9229 67.4623 52.4828C68.143 51.0427 68.7274 49.5551 69.208 48.0327C69.6784 46.5065 70.0457 44.9481 70.3072 43.3693C70.8327 40.2119 70.8783 36.9753 70.5085 33.7875Z" fill="#F4F4F4"/>
</svg>
