<svg width="436" height="148" viewBox="0 0 436 148" fill="none" xmlns="http://www.w3.org/2000/svg">
<g clip-path="url(#clip0_33_14227)">
<rect width="436" height="148" fill="url(#paint0_linear_33_14227)"/>
<g style="mix-blend-mode:screen" opacity="0.07" filter="url(#filter0_i_33_14227)">
<g clip-path="url(#clip1_33_14227)">
<rect width="542.08" height="542.261" fill="#001238"/>
<path d="M90.3467 90.4463H0L0 180.793H90.3467V90.4463Z" fill="#001238"/>
<path d="M24.8457 149.172V135.62C17.365 135.62 11.2937 141.691 11.2937 149.172L11.2937 169.5H24.8457H38.3977H51.9497H65.5017H79.0537V135.62C71.573 135.62 65.5017 141.691 65.5017 149.172V135.62C58.021 135.62 51.9497 141.691 51.9497 149.172V135.62C44.469 135.62 38.3977 141.691 38.3977 149.172V135.62C30.917 135.62 24.8457 141.691 24.8457 149.172Z" fill="#22A2F2"/>
<path d="M65.5017 122.067V135.619C72.9824 135.619 79.0537 129.547 79.0537 122.067V101.739H65.5017H51.9497H38.3977H24.8457H11.2937L11.2937 135.619C18.7744 135.619 24.8457 129.547 24.8457 122.067V135.619C32.3264 135.619 38.3977 129.547 38.3977 122.067V135.619C45.8784 135.619 51.9497 129.547 51.9497 122.067V135.619C59.4304 135.619 65.5017 129.547 65.5017 122.067Z" fill="#F4F4F4"/>
<path d="M451.734 0.0899658L361.387 0.0899658V90.4367H451.734V0.0899658Z" fill="#001238"/>
<path d="M451.734 45.4074V90.4363H361.387V55.201C364.613 49.2833 370.874 45.2629 378.083 45.2629V64.2447C378.083 53.7645 386.594 45.2629 397.065 45.2629V64.2447C397.065 53.7645 405.576 45.2629 416.056 45.2629V64.2447C416.056 53.7645 424.558 45.2629 435.038 45.2629V64.2447C435.038 54.5415 442.329 46.5277 451.734 45.4074Z" fill="#22A2F2"/>
<path d="M451.734 0.0899658V35.3252C448.508 41.2429 442.247 45.2633 435.038 45.2633V26.2815C435.038 36.7527 426.527 45.2633 416.056 45.2633V26.2815C416.056 36.7527 407.545 45.2633 397.065 45.2633V26.2815C397.065 36.7527 388.563 45.2633 378.083 45.2633V26.2815C378.083 35.9757 370.792 43.9985 361.387 45.1188V0.0899658L451.734 0.0899658Z" fill="#F4F4F4"/>
<path d="M271.04 90.4463H180.693V180.793H271.04V90.4463Z" fill="#001238"/>
<path d="M212.315 115.291H225.867C225.867 107.81 219.796 101.739 212.315 101.739H191.987V115.291V128.843V142.395V155.947V169.499H225.867C225.867 162.018 219.796 155.947 212.315 155.947H225.867C225.867 148.466 219.796 142.395 212.315 142.395H225.867C225.867 134.914 219.796 128.843 212.315 128.843H225.867C225.867 121.362 219.796 115.291 212.315 115.291Z" fill="#22A2F2"/>
<path d="M451.734 90.4463H361.387V180.793H451.734V90.4463Z" fill="#001238"/>
<path d="M406.444 139.82C406.516 140.317 406.543 140.823 406.543 141.338H406.335C406.335 140.814 406.363 140.308 406.444 139.82Z" fill="#F4F4F4"/>
<path d="M406.444 128.383C406.516 128.88 406.543 129.386 406.543 129.901H406.335C406.335 129.377 406.363 128.88 406.444 128.383Z" fill="#F4F4F4"/>
<path d="M406.543 118.463H406.335C406.335 117.948 406.363 117.442 406.444 116.945C406.516 117.442 406.543 117.939 406.543 118.463Z" fill="#F4F4F4"/>
<path d="M417.772 141.338C411.981 141.338 407.184 145.666 406.443 151.258C405.693 145.666 400.896 141.338 395.104 141.338H417.772Z" fill="#F4F4F4"/>
<path d="M417.772 129.9C411.981 129.9 407.184 134.228 406.443 139.82C405.693 134.228 400.896 129.9 395.104 129.9H417.772Z" fill="#F4F4F4"/>
<path d="M417.772 118.462C411.981 118.462 407.184 122.79 406.443 128.382C405.693 122.79 400.896 118.462 395.104 118.462H417.772Z" fill="#F4F4F4"/>
<path d="M406.543 141.338H406.335C406.335 140.823 406.363 140.317 406.444 139.82C406.516 140.308 406.543 140.814 406.543 141.338Z" fill="#F4F4F4"/>
<path d="M406.543 129.901H406.335C406.335 129.386 406.363 128.88 406.444 128.383C406.516 128.88 406.543 129.377 406.543 129.901Z" fill="#F4F4F4"/>
<path d="M406.543 118.463H406.335C406.335 117.948 406.363 117.442 406.444 116.945C406.516 117.442 406.543 117.939 406.543 118.463Z" fill="#F4F4F4"/>
<path d="M383.775 139.82C383.848 140.317 383.875 140.823 383.875 141.338H383.667C383.667 140.814 383.694 140.308 383.775 139.82Z" fill="#22A2F2"/>
<path d="M383.775 128.383C383.848 128.88 383.875 129.386 383.875 129.901H383.667C383.667 129.377 383.694 128.88 383.775 128.383Z" fill="#22A2F2"/>
<path d="M383.875 118.463H383.667C383.667 117.948 383.694 117.442 383.775 116.945C383.848 117.442 383.875 117.939 383.875 118.463Z" fill="#22A2F2"/>
<path d="M395.104 141.338C389.313 141.338 384.516 145.666 383.775 151.258C383.025 145.666 378.228 141.338 372.436 141.338H395.104Z" fill="#22A2F2"/>
<path d="M395.104 129.9C389.313 129.9 384.516 134.228 383.775 139.82C383.025 134.228 378.228 129.9 372.436 129.9H395.104Z" fill="#22A2F2"/>
<path d="M395.104 118.462C389.313 118.462 384.516 122.79 383.775 128.382C383.025 122.79 378.228 118.462 372.436 118.462H395.104Z" fill="#22A2F2"/>
<path d="M383.875 141.338H383.667C383.667 140.823 383.694 140.317 383.775 139.82C383.848 140.308 383.875 140.814 383.875 141.338Z" fill="#22A2F2"/>
<path d="M383.875 129.901H383.667C383.667 129.386 383.694 128.88 383.775 128.383C383.848 128.88 383.875 129.377 383.875 129.901Z" fill="#22A2F2"/>
<path d="M383.875 118.463H383.667C383.667 117.948 383.694 117.442 383.775 116.945C383.848 117.442 383.875 117.939 383.875 118.463Z" fill="#22A2F2"/>
<path d="M429.111 139.82C429.183 140.317 429.21 140.823 429.21 141.338H429.003C429.003 140.814 429.03 140.308 429.111 139.82Z" fill="#22A2F2"/>
<path d="M429.111 128.383C429.183 128.88 429.21 129.386 429.21 129.901H429.003C429.003 129.377 429.03 128.88 429.111 128.383Z" fill="#22A2F2"/>
<path d="M429.21 118.463H429.003C429.003 117.948 429.03 117.442 429.111 116.945C429.183 117.442 429.21 117.939 429.21 118.463Z" fill="#22A2F2"/>
<path d="M440.441 141.338C434.649 141.338 429.852 145.666 429.111 151.258C428.361 145.666 423.564 141.338 417.773 141.338H440.441Z" fill="#22A2F2"/>
<path d="M440.441 129.9C434.649 129.9 429.852 134.228 429.111 139.82C428.361 134.228 423.564 129.9 417.773 129.9H440.441Z" fill="#22A2F2"/>
<path d="M440.441 118.462C434.649 118.462 429.852 122.79 429.111 128.382C428.361 122.79 423.564 118.462 417.773 118.462H440.441Z" fill="#22A2F2"/>
<path d="M429.21 141.338H429.003C429.003 140.823 429.03 140.317 429.111 139.82C429.183 140.308 429.21 140.814 429.21 141.338Z" fill="#22A2F2"/>
<path d="M429.21 129.901H429.003C429.003 129.386 429.03 128.88 429.111 128.383C429.183 128.88 429.21 129.377 429.21 129.901Z" fill="#22A2F2"/>
<path d="M429.21 118.463H429.003C429.003 117.948 429.03 117.442 429.111 116.945C429.183 117.442 429.21 117.939 429.21 118.463Z" fill="#22A2F2"/>
<path d="M406.444 116.945C406.516 117.442 406.543 117.948 406.543 118.463H406.335C406.335 117.939 406.363 117.442 406.444 116.945Z" fill="#F4F4F4"/>
<path d="M417.772 107.025C411.981 107.025 407.184 111.353 406.443 116.945C405.693 111.353 400.896 107.025 395.104 107.025H417.772Z" fill="#F4F4F4"/>
<path d="M406.543 118.463H406.335C406.335 117.948 406.363 117.442 406.444 116.945C406.516 117.442 406.543 117.939 406.543 118.463Z" fill="#F4F4F4"/>
<path d="M383.775 116.945C383.848 117.442 383.875 117.948 383.875 118.463H383.667C383.667 117.939 383.694 117.442 383.775 116.945Z" fill="#22A2F2"/>
<path d="M395.104 107.025C389.313 107.025 384.516 111.353 383.775 116.945C383.025 111.353 378.228 107.025 372.436 107.025H395.104Z" fill="#22A2F2"/>
<path d="M383.875 118.463H383.667C383.667 117.948 383.694 117.442 383.775 116.945C383.848 117.442 383.875 117.939 383.875 118.463Z" fill="#22A2F2"/>
<path d="M429.111 116.945C429.183 117.442 429.21 117.948 429.21 118.463H429.003C429.003 117.939 429.03 117.442 429.111 116.945Z" fill="#22A2F2"/>
<path d="M440.441 107.025C434.649 107.025 429.852 111.353 429.111 116.945C428.361 111.353 423.564 107.025 417.773 107.025H440.441Z" fill="#22A2F2"/>
<path d="M429.21 118.463H429.003C429.003 117.948 429.03 117.442 429.111 116.945C429.183 117.442 429.21 117.939 429.21 118.463Z" fill="#22A2F2"/>
<path d="M180.693 0L90.3467 0V90.3467H180.693V0Z" fill="#001238"/>
<path d="M101.712 33.8886H124.289C124.289 29.7327 120.92 26.3627 116.764 26.3627H101.712V33.8886Z" fill="#22A2F2"/>
<path d="M101.712 18.8826H124.289C124.289 14.7266 120.92 11.3567 116.764 11.3567H101.712V18.8826Z" fill="#22A2F2"/>
<path d="M101.712 63.9377H124.289C124.289 59.7817 120.92 56.4118 116.764 56.4118H101.712V63.9377Z" fill="#22A2F2"/>
<path d="M101.712 48.9409H124.289C124.289 44.7849 120.92 41.415 116.764 41.415H101.712V48.9409Z" fill="#22A2F2"/>
<path d="M101.712 78.9894H124.289C124.289 74.8335 120.92 71.4636 116.764 71.4636H101.712V78.9894Z" fill="#22A2F2"/>
<path d="M169.4 33.8886H146.822C146.822 29.7327 150.192 26.3627 154.348 26.3627H169.4V33.8886Z" fill="#F4F4F4"/>
<path d="M169.4 18.8826H146.822C146.822 14.7266 150.192 11.3567 154.348 11.3567L169.4 11.3567V18.8826Z" fill="#F4F4F4"/>
<path d="M169.4 63.9377H146.822C146.822 59.7817 150.192 56.4118 154.348 56.4118H169.4V63.9377Z" fill="#F4F4F4"/>
<path d="M169.4 48.9409H146.822C146.822 44.7849 150.192 41.415 154.348 41.415H169.4V48.9409Z" fill="#F4F4F4"/>
<path d="M169.4 78.9894H146.822C146.822 74.8335 150.192 71.4636 154.348 71.4636H169.4V78.9894Z" fill="#F4F4F4"/>
<path d="M361.386 0L271.039 0V90.3467H361.386V0Z" fill="#001238"/>
<path d="M324.136 78.1135C324.949 77.9147 325.753 77.6888 326.548 77.4359C324.958 77.1196 323.441 76.3517 322.203 75.114C322.898 75.8096 323.459 76.6047 323.856 77.4539C323.965 77.6708 324.055 77.8876 324.136 78.1135Z" fill="#22A2F2"/>
<path d="M348.476 55.5176C348.729 54.7135 348.963 53.9004 349.153 53.0873C348.06 52.6717 347.03 52.0393 346.154 51.1539C346.849 51.8495 347.409 52.6446 347.807 53.4938C348.123 54.1443 348.34 54.8219 348.476 55.5176Z" fill="#22A2F2"/>
<path d="M310.223 63.1344C310.919 63.8301 311.479 64.6251 311.877 65.4744C313.385 68.6185 312.834 72.5034 310.223 75.1144C312.834 72.5034 316.719 71.9522 319.863 73.461C320.713 73.8676 321.499 74.4187 322.203 75.1144C318.897 71.8077 318.897 66.4411 322.203 63.1344C318.897 66.4411 313.53 66.4411 310.223 63.1344Z" fill="#22A2F2"/>
<path d="M322.202 51.1543C321.506 50.4586 320.711 49.8985 319.871 49.5009C316.718 47.9922 312.833 48.5523 310.231 51.1543L322.211 39.1743C318.895 42.49 318.895 47.8476 322.202 51.1543Z" fill="#22A2F2"/>
<path d="M308.298 78.1135C308.713 77.0203 309.346 75.9903 310.231 75.114C308.993 76.3517 307.475 77.1196 305.885 77.4359C306.671 77.6888 307.484 77.9237 308.298 78.1135Z" fill="#22A2F2"/>
<path d="M348.476 34.8373C348.16 36.4274 347.392 37.9453 346.163 39.183C347.039 38.3067 348.06 37.6652 349.153 37.2586C348.955 36.4365 348.729 35.6324 348.476 34.8373Z" fill="#22A2F2"/>
<path d="M335.827 72.7923C337.345 71.7081 338.808 70.4884 340.172 69.1242C341.546 67.7509 342.765 66.2873 343.859 64.7605C340.706 66.2873 336.803 65.7452 334.192 63.1252C334.887 63.8209 335.447 64.6159 335.845 65.4652C336.938 67.7871 336.929 70.4884 335.827 72.7923Z" fill="#22A2F2"/>
<path d="M343.822 25.5494C340.669 24.0406 336.784 24.6007 334.182 27.2027L340.172 21.2127C341.536 22.5769 342.756 24.0225 343.822 25.5494Z" fill="#22A2F2"/>
<path d="M310.222 63.1338C309.527 62.4382 308.732 61.878 307.891 61.4805C304.738 59.9717 300.853 60.5319 298.251 63.1338L310.231 51.1539C306.916 54.4696 306.916 59.8272 310.222 63.1338Z" fill="#22A2F2"/>
<path d="M296.617 72.8102C295.09 71.717 293.627 70.4973 292.262 69.1331L298.252 63.1431C295.632 65.7541 295.099 69.6481 296.617 72.8102Z" fill="#22A2F2"/>
<path d="M334.182 51.1543C336.793 48.5433 340.678 47.9922 343.822 49.5009C344.671 49.9075 345.458 50.4586 346.162 51.1543C342.856 47.8476 342.856 42.481 346.162 39.1743C342.856 42.481 337.489 42.481 334.182 39.1743C334.878 39.87 335.438 40.665 335.836 41.5143C337.344 44.6674 336.793 48.5523 334.182 51.1543Z" fill="#22A2F2"/>
<path d="M322.203 51.1539C322.898 51.8495 323.459 52.6446 323.856 53.4939C325.365 56.6379 324.814 60.5228 322.203 63.1338C324.814 60.5228 328.699 59.9717 331.843 61.4805C332.692 61.8871 333.478 62.4382 334.183 63.1338C330.876 59.8272 330.876 54.4606 334.183 51.1539C330.876 54.4606 325.509 54.4606 322.203 51.1539Z" fill="#22A2F2"/>
<path d="M334.183 39.1835C333.487 38.4878 332.692 37.9276 331.852 37.5301C328.699 36.0213 324.814 36.5815 322.212 39.1835L334.192 27.2035C330.876 30.5102 330.867 35.8677 334.183 39.1835Z" fill="#22A2F2"/>
<path d="M322.212 39.1835L310.232 51.1635C312.843 48.5525 313.385 44.6766 311.886 41.5235C311.479 40.6833 310.928 39.8882 310.223 39.1835C313.53 42.4902 318.897 42.4902 322.212 39.1835Z" fill="#F4F4F4"/>
<path d="M286.263 39.183C285.567 38.4873 284.772 37.9272 283.932 37.5297C283.715 37.4303 283.489 37.3309 283.263 37.2496C283.453 36.4455 283.688 35.6414 283.95 34.8373C284.266 36.4274 285.034 37.9453 286.263 39.183Z" fill="#F4F4F4"/>
<path d="M283.949 55.4995C283.696 54.7045 283.461 53.9004 283.271 53.0873C284.365 52.6717 285.394 52.0393 286.271 51.1539C285.033 52.4007 284.256 53.9094 283.949 55.4995Z" fill="#F4F4F4"/>
<path d="M340.172 21.2133L334.182 27.2033C336.793 24.5923 337.335 20.7164 335.836 17.5633C337.362 18.6384 338.808 19.8581 340.172 21.2133Z" fill="#F4F4F4"/>
<path d="M310.222 15.2232C309.526 14.5275 308.731 13.9674 307.891 13.5699C307.241 13.2627 306.554 13.0368 305.858 12.9013C306.662 12.6483 307.485 12.4134 308.298 12.2237C308.704 13.3169 309.346 14.3468 310.222 15.2232Z" fill="#F4F4F4"/>
<path d="M326.549 12.9012C324.958 13.2174 323.441 13.9853 322.212 15.2231C323.088 14.3467 323.73 13.3258 324.136 12.2416C324.94 12.4223 325.744 12.6572 326.549 12.9012Z" fill="#F4F4F4"/>
<path d="M298.244 27.2032C297.548 26.5075 296.753 25.9474 295.913 25.5498C293.6 24.4476 290.898 24.4566 288.594 25.5589C289.679 24.041 290.898 22.5865 292.263 21.2132C293.627 19.8489 295.09 18.6202 296.617 17.5361C295.09 20.6892 295.632 24.5922 298.244 27.2032Z" fill="#F4F4F4"/>
<path d="M310.231 51.1539L298.251 63.1338C300.862 60.5228 301.404 56.647 299.905 53.4939C299.498 52.6536 298.947 51.8586 298.242 51.1539C301.549 54.4696 306.916 54.4696 310.231 51.1539Z" fill="#F4F4F4"/>
<path d="M310.222 39.1835C309.527 38.4878 308.732 37.9276 307.891 37.5301C304.738 36.0213 300.853 36.5815 298.251 39.1835C300.862 36.5724 301.404 32.6966 299.905 29.5435C299.498 28.7032 298.947 27.9082 298.242 27.2035C301.549 30.5102 306.916 30.5102 310.231 27.2035C306.916 30.5102 306.916 35.8677 310.222 39.1835Z" fill="#F4F4F4"/>
<path d="M298.243 51.1543C297.547 50.4586 296.752 49.8985 295.912 49.5009C292.758 47.9922 288.874 48.5523 286.272 51.1543C288.883 48.5433 289.425 44.6674 287.925 41.5143C287.518 40.6741 286.967 39.879 286.263 39.1743C289.569 42.481 294.936 42.481 298.252 39.1743C294.945 42.49 294.936 47.8476 298.243 51.1543Z" fill="#F4F4F4"/>
<path d="M298.252 63.1344L292.262 69.1244C290.889 67.7511 289.669 66.2875 288.585 64.7697C291.738 66.2965 295.632 65.7545 298.252 63.1344Z" fill="#F4F4F4"/>
<path d="M322.203 27.2029C321.508 26.5073 320.713 25.9471 319.872 25.5496C316.719 24.0408 312.834 24.601 310.232 27.2029C312.843 24.5919 313.385 20.716 311.886 17.5629C311.479 16.7227 310.928 15.9277 310.223 15.223C313.53 18.5297 318.897 18.5297 322.212 15.223C318.897 18.5297 318.897 23.8872 322.203 27.2029Z" fill="#F4F4F4"/>
<path d="M334.182 27.2035L322.202 39.1835C324.813 36.5724 325.355 32.6966 323.856 29.5435C323.449 28.7032 322.898 27.9082 322.193 27.2035C325.509 30.5102 330.876 30.5102 334.182 27.2035Z" fill="#F4F4F4"/>
<path d="M90.3467 -6.10352e-05L0 -6.10352e-05L0 90.3467H90.3467V-6.10352e-05Z" fill="#001238"/>
<path d="M52.3281 74.5178H38.0262V90.3465H52.3281V74.5178Z" fill="#F4F4F4"/>
<path d="M52.3292 74.518V47.4411C44.4238 47.4411 38.0273 53.8466 38.0273 61.7429V74.518H11.2937L28.2337 45.1734L45.1737 15.8287L62.1137 45.1734L79.0537 74.518H52.3292Z" fill="#22A2F2"/>
<path d="M271.04 0L180.693 0V90.3467H271.04V0Z" fill="#001238"/>
<path d="M225.867 90.3462H180.694L203.28 67.7324L225.867 45.1276L248.454 67.7324L271.04 90.3462H225.867Z" fill="#F4F4F4"/>
<path d="M225.867 0L271.04 0L248.454 22.5777L225.867 45.1643L203.28 22.5777L180.693 0L225.867 0Z" fill="#22A2F2"/>
<path d="M180.693 90.4463H90.3467V180.793H180.693V90.4463Z" fill="#001238"/>
<path d="M180.693 120.441V180.793H120.341L180.693 120.441Z" fill="#22A2F2"/>
<path d="M180.693 90.4463V120.676L120.586 180.793H90.3467V150.68L150.572 90.4463H180.693Z" fill="#F4F4F4"/>
<path d="M150.572 90.4463L90.3467 150.68V90.4463H150.572Z" fill="#001238"/>
<path d="M361.386 90.4463H271.039V180.793H361.386V90.4463Z" fill="#001238"/>
<path d="M361.386 90.4463V180.793C358.937 180.793 356.543 180.594 354.203 180.206C335.086 177.116 319.98 162.01 316.89 142.893C316.836 142.558 316.781 142.224 316.736 141.89C316.447 139.839 316.302 137.743 316.302 135.62C316.302 133.487 316.447 131.382 316.745 129.322C316.781 128.988 316.836 128.645 316.899 128.311C319.998 109.211 335.086 94.1324 354.176 91.0335C356.525 90.6541 358.928 90.4463 361.386 90.4463Z" fill="#22A2F2"/>
<path d="M271.039 90.4463C295.984 90.4463 316.212 110.675 316.212 135.62C316.212 160.564 295.984 180.793 271.039 180.793V90.4463Z" fill="#F4F4F4"/>
</g>
</g>
</g>
<defs>
<filter id="filter0_i_33_14227" x="0" y="0" width="2168" height="1631.33" filterUnits="userSpaceOnUse" color-interpolation-filters="sRGB">
<feFlood flood-opacity="0" result="BackgroundImageFix"/>
<feBlend mode="normal" in="SourceGraphic" in2="BackgroundImageFix" result="shape"/>
<feColorMatrix in="SourceAlpha" type="matrix" values="0 0 0 0 0 0 0 0 0 0 0 0 0 0 0 0 0 0 127 0" result="hardAlpha"/>
<feOffset dy="3.92303"/>
<feGaussianBlur stdDeviation="28.442"/>
<feComposite in2="hardAlpha" operator="arithmetic" k2="-1" k3="1"/>
<feColorMatrix type="matrix" values="0 0 0 0 0 0 0 0 0 0 0 0 0 0 0 0 0 0 1 0"/>
<feBlend mode="normal" in2="shape" result="effect1_innerShadow_33_14227"/>
</filter>
<linearGradient id="paint0_linear_33_14227" x1="30.0992" y1="11.2177" x2="236.546" y2="58.7369" gradientUnits="userSpaceOnUse">
<stop stop-color="#22A2F2"/>
<stop offset="1" stop-color="#2287F3"/>
</linearGradient>
<clipPath id="clip0_33_14227">
<rect width="436" height="148" fill="white"/>
</clipPath>
<clipPath id="clip1_33_14227">
<rect width="542.08" height="542.261" fill="white"/>
</clipPath>
</defs>
</svg>
