<svg width="99" height="102" viewBox="0 0 99 102" fill="none" xmlns="http://www.w3.org/2000/svg">
<path fill-rule="evenodd" clip-rule="evenodd" d="M97.2319 40.4959C97.8084 42.6549 98.2502 44.8518 98.4993 47.0706C99.0133 51.5031 98.9499 56.0033 98.2194 60.3935C97.8559 62.5886 97.3454 64.7555 96.6915 66.8775C96.0234 68.9943 95.2111 71.0627 94.2649 73.065C93.3205 75.0674 92.2414 77.0063 91.0127 78.8432C89.7814 80.6783 88.4286 82.4263 86.9693 84.0766C88.3538 82.3629 89.6221 80.5604 90.7619 78.6839C91.9166 76.8162 92.9235 74.8614 93.7905 72.8503C94.6592 70.84 95.3915 68.7734 95.9794 66.6681C96.5533 64.5592 96.9828 62.4143 97.2671 60.2526C97.3463 59.677 97.4123 59.0996 97.4695 58.5214C97.2284 60.0203 96.9221 61.5069 96.5454 62.9741C97.2671 59.6955 97.6456 56.3456 97.679 52.9984C97.5531 46.7194 96.181 40.4809 93.6497 34.7626C92.0768 31.2561 90.0745 27.944 87.7078 24.9234C88.3168 25.7481 88.8969 26.5939 89.4461 27.46C90.548 29.2097 91.5311 31.0316 92.3875 32.9099C93.2307 34.7951 93.9436 36.7341 94.5228 38.7109C95.7057 42.6602 96.247 46.7793 96.2584 50.8782C95.9275 42.6875 93.3795 34.6129 88.8 27.8807C86.5601 24.4886 83.8281 21.4327 80.7546 18.7913C77.6793 16.1474 74.2221 13.9664 70.5518 12.2721C63.1876 8.94245 54.9151 7.62399 46.9171 8.70833C38.921 9.75043 31.2478 13.0721 24.9987 18.1576C18.7215 23.2062 13.8789 30.0291 11.2604 37.6583C11.1515 37.9603 11.0569 38.2674 10.9623 38.5747C10.9085 38.7491 10.8548 38.9236 10.7984 39.0973C10.6452 39.5779 10.4929 40.0576 10.3768 40.5487L9.99918 42.0133L9.69289 43.4946L9.5415 44.2356L9.42708 44.9829L9.20353 46.4792C9.17601 46.7931 9.14325 47.1067 9.11048 47.4203C9.03844 48.11 8.96638 48.7997 8.95004 49.4937C8.72824 53.523 9.10143 57.5814 9.98598 61.5262C11.7744 69.4203 15.846 76.7889 21.5441 82.5847C22.9656 84.0361 24.4698 85.4153 26.0901 86.6493C26.6406 87.1008 27.2232 87.5078 27.8063 87.9151C28.0585 88.0912 28.3109 88.2675 28.5607 88.4474C28.8205 88.6087 29.0783 88.7737 29.3362 88.9388C29.937 89.3235 30.5383 89.7086 31.1677 90.0466C34.705 92.086 38.5504 93.5805 42.5217 94.5961C34.4744 92.9599 26.9307 88.891 21.0028 83.1269C15.0917 77.3425 10.7975 69.8824 8.8145 61.8052C6.78399 53.7342 7.20206 45.0797 9.85572 37.1777C12.5164 29.2634 17.5298 22.1861 24.0103 16.936C30.057 12.0459 37.3754 8.74002 45.0477 7.47612C39.0882 8.21369 33.2713 10.099 28.0396 13.0633C27.7356 13.2289 27.4394 13.4094 27.1434 13.5899C26.9785 13.6904 26.8135 13.791 26.6472 13.8889C26.1834 14.1653 25.7204 14.4416 25.2786 14.7532L23.9355 15.6589L22.6382 16.6288L21.9904 17.1155L21.3681 17.6339L20.1253 18.6752C19.882 18.9056 19.6349 19.1323 19.3878 19.359C18.8383 19.8629 18.2887 20.367 17.7806 20.9134C14.7388 23.9878 12.1573 27.5101 10.0678 31.3053C5.91264 38.9151 3.91734 47.7087 4.34685 56.4187C4.41814 57.878 4.5484 59.3382 4.74908 60.7887C5.74189 65.9983 7.60341 71.0512 10.2544 75.6597C11.3405 77.5538 12.5314 79.3959 13.8833 81.1175C14.3357 81.7384 14.834 82.3221 15.3326 82.9062C15.545 83.155 15.7576 83.4039 15.9666 83.6559C16.1936 83.8942 16.4174 84.136 16.6411 84.3777C17.1618 84.9402 17.6827 85.503 18.2453 86.0244C21.3716 89.1031 24.967 91.696 28.8221 93.8251C22.639 90.7807 17.1847 86.277 12.9054 80.8288C13.1642 81.1826 13.4283 81.5321 13.7099 81.8683C16.5449 85.4778 19.9114 88.6631 23.631 91.3686C31.0955 96.7543 40.0933 100.029 49.3314 100.739C51.64 100.919 53.9663 100.975 56.2837 100.82C57.0955 100.794 57.9016 100.706 58.7085 100.619C59.0573 100.581 59.4063 100.543 59.7559 100.51C60.0989 100.454 60.4431 100.402 60.7875 100.351C61.5936 100.231 62.4009 100.111 63.1964 99.9281C65.4857 99.4924 67.7292 98.835 69.934 98.0719L71.5825 97.476C71.9356 97.3385 72.2843 97.1907 72.633 97.0428C72.8224 96.9625 73.0118 96.8822 73.202 96.8036L74.0108 96.4629L74.803 96.0845L76.3855 95.3214C68.2793 100.056 58.7253 102.305 49.261 101.886C39.795 101.441 30.4143 98.3245 22.5757 92.8675C14.6966 87.4643 8.47124 79.7022 4.74468 70.8805C1.01724 62.0411 -0.039826 52.1297 1.55149 42.6813C3.16217 33.232 7.41418 24.2404 13.7733 17.0636C15.3734 15.2795 17.0923 13.6073 18.9107 12.0503C19.2061 11.7988 19.5104 11.558 19.8144 11.3174C19.9796 11.1867 20.1448 11.056 20.3084 10.9237L21.0099 10.3648L21.7369 9.83845L23.1962 8.79459L24.7048 7.82466C28.7402 5.25286 33.1692 3.33149 37.753 2.01126C40.0502 1.36523 42.3914 0.885546 44.7511 0.55989C47.1116 0.236874 49.4933 0.0617241 51.8724 0.09605C56.6278 0.145338 61.3763 0.812493 65.9196 2.16881C68.1904 2.8474 70.4119 3.67827 72.5656 4.65347C74.7123 5.64364 76.7886 6.77904 78.776 8.04734C80.7643 9.31388 82.6671 10.7133 84.4415 12.2571C86.2133 13.8044 87.8759 15.4679 89.4205 17.2308C87.7879 15.548 86.0487 13.976 84.2144 12.5317C82.3925 11.0715 80.4597 9.75483 78.4495 8.57983C76.4409 7.40307 74.355 6.36273 72.2109 5.47025C70.0599 4.59274 67.8533 3.86134 65.6107 3.2822C56.6481 0.90931 47.0773 1.11615 38.2723 3.77684C29.4849 6.48331 21.4447 11.5952 15.4526 18.5379C13.5356 20.733 11.822 23.1006 10.324 25.5984C10.3519 25.5551 10.379 25.5113 10.406 25.4675C10.4395 25.4134 10.4729 25.3593 10.5079 25.3062C15.4183 17.8126 22.5422 11.8249 30.6942 8.13271C38.8505 4.44488 48.0341 3.04368 56.9121 4.21516C59.1292 4.51969 61.3235 4.97561 63.4798 5.56795C63.8257 5.66419 64.1687 5.77281 64.5116 5.88139C64.7018 5.94163 64.892 6.00186 65.0826 6.05996L65.8826 6.3108L66.6704 6.59861L68.2423 7.18215L69.7826 7.84226C73.885 9.61929 77.6916 12.0441 81.1137 14.9028C84.5111 17.7933 87.5273 21.1299 89.9979 24.8336C90.945 26.255 91.819 27.724 92.6155 29.2335C93.5194 30.8274 94.338 32.4698 95.0606 34.1517C95.931 36.2148 96.6519 38.3377 97.2319 40.4959ZM76.782 35.7766H26.454V23.1948H64.2002C71.0381 23.1948 76.605 28.6562 76.7784 35.4501C76.782 35.561 76.782 35.6666 76.782 35.7766ZM32.7453 79.8141V42.0688H45.3271V67.2323C45.3271 74.1794 39.6932 79.8141 32.7453 79.8141ZM57.9089 79.8141V42.0688H70.4906V67.2323C70.4906 74.1794 64.8568 79.8141 57.9089 79.8141Z" fill="#F4F4F4"/>
</svg>
